<svg width="54" height="54" viewBox="0 0 54 54" fill="none" xmlns="http://www.w3.org/2000/svg">
<circle cx="27" cy="27" r="27" fill="#40914C"/>
<path d="M35.6977 32.9293C35.9474 32.711 36.2376 32.544 36.5519 32.4378C36.8661 32.3316 37.1982 32.2884 37.5292 32.3105C37.8601 32.3327 38.1835 32.4198 38.4807 32.567C38.778 32.7141 39.0434 32.9184 39.2618 33.1681L43.6947 38.2376C43.913 38.4872 44.08 38.7774 44.1862 39.0916C44.2924 39.4058 44.3356 39.7378 44.3134 40.0687C44.2913 40.3996 44.2041 40.7229 44.057 41.0202C43.9099 41.3174 43.7057 41.5827 43.456 41.801L40.3937 44.4808C38.7317 45.7488 37.2365 45.5717 37.2115 45.5717C36.5781 45.4543 35.3139 45.684 34.388 45.3914C30.7835 44.2485 25.5965 41.9435 19.6896 35.1882C13.7826 28.4329 11.8543 22.592 10.9238 18.5479C10.6344 17.2896 10.9546 15.8367 10.8737 15.0718C10.8737 15.0468 10.8224 13.5657 12.1058 12.4408C12.1847 12.3734 12.2579 12.2995 12.3246 12.22L14.4474 10.3231L15.3272 9.62367C15.8316 9.18293 16.4905 8.96055 17.1588 9.00544C17.8271 9.05032 18.4503 9.35879 18.8913 9.86303L23.3242 14.9325C23.5431 15.1823 23.7105 15.4728 23.817 15.7873C23.9234 16.1019 23.9668 16.4343 23.9446 16.7657C23.9224 17.097 23.8352 17.4207 23.6877 17.7183C23.5403 18.0159 23.3357 18.2814 23.0855 18.4998L19.266 21.8367C20.7291 24.734 22.3084 27.4164 25.0222 30.5197C27.3888 33.2271 29.3858 34.8442 31.6568 36.4607L35.6977 32.9293Z" fill="white"/>
<path d="M40.873 44.0609L40.393 44.4812C38.731 45.7493 37.2358 45.5721 37.2108 45.5721C36.5774 45.4547 35.3133 45.6844 34.3873 45.3918C30.7828 44.2489 25.5958 41.9439 19.6889 35.1886C13.7819 28.4333 11.8542 22.5925 10.9237 18.5484C10.6343 17.29 10.9545 15.8372 10.8737 15.0723C10.873 14.8324 10.9017 14.5934 10.959 14.3606C12.6647 31.1067 27.8803 40.4468 40.873 44.0609Z" fill="#E6E9FD"/>
<path d="M17.9947 10.3463L20.6289 13.3565C19.4295 12.1482 16.3782 9.9054 12.5305 13.275L16.0253 10.216C16.3042 9.97325 16.6679 9.85072 17.0368 9.87513C17.4058 9.89953 17.7501 10.0689 17.9947 10.3463V10.3463Z" fill="#E6E9FD"/>
<path d="M38.3185 33.8824L40.9553 36.8927C39.7559 35.6844 36.7046 33.4416 32.8569 36.8118L36.351 33.7522C36.6298 33.5099 36.993 33.3876 37.3616 33.412C37.7301 33.4364 38.0741 33.6055 38.3185 33.8824Z" fill="#E6E9FD"/>
</svg>
