<svg width="55" height="55" viewBox="0 0 55 55" fill="none" xmlns="http://www.w3.org/2000/svg">
<circle cx="27.5" cy="27.5" r="27.5" fill="#E98037"/>
<path d="M32.3761 36.9144C32.7076 36.8489 33.0487 36.8494 33.3799 36.9158C33.7112 36.9822 34.0261 37.1132 34.3067 37.3012C34.5874 37.4893 34.8282 37.7309 35.0155 38.012C35.2028 38.2932 35.3329 38.6085 35.3983 38.94L36.7267 45.6691C36.7922 46.0005 36.7917 46.3415 36.7254 46.6727C36.659 47.0039 36.528 47.3188 36.34 47.5994C36.1519 47.88 35.9104 48.1208 35.6293 48.3081C35.3481 48.4953 35.0329 48.6253 34.7015 48.6907L30.6357 49.495C28.5239 49.767 27.2952 48.8494 27.2732 48.8366C26.7743 48.4105 25.5422 47.9694 24.8745 47.2397C22.2771 44.396 18.8757 39.7213 17.1056 30.7545C15.3355 21.7877 16.6091 15.6537 17.8478 11.6127C18.2334 10.3554 19.2557 9.23695 19.574 8.52107C19.5867 8.49899 20.2957 7.16645 22.0006 6.8278C22.1045 6.80851 22.2067 6.78066 22.306 6.74453L25.1445 6.15239L26.2767 5.98345C26.9461 5.85158 27.6405 5.99094 28.2071 6.37089C28.7738 6.75084 29.1664 7.34028 29.2985 8.00961L30.627 14.7388C30.6928 15.0705 30.6926 15.412 30.6263 15.7437C30.56 16.0753 30.429 16.3907 30.2407 16.6717C30.0524 16.9526 29.8105 17.1937 29.529 17.3811C29.2474 17.5685 28.9316 17.6985 28.5998 17.7638L23.5314 18.762C23.3465 22.0627 23.3734 25.233 24.1868 29.3523C24.8955 32.9456 25.8335 35.389 27.0135 37.9714L32.3761 36.9144Z" fill="white"/>
<path d="M31.2725 49.3684L30.6351 49.4948C28.5233 49.7668 27.2947 48.8492 27.2726 48.8364C26.7737 48.4103 25.5417 47.9691 24.8739 47.2395C22.2765 44.3957 18.8752 39.721 17.1051 30.7543C15.335 21.7875 16.6091 15.6538 17.8479 11.6128C18.2334 10.3555 19.2557 9.23705 19.574 8.52117C19.6955 8.3093 19.8425 8.11309 20.0117 7.93691C12.9881 23.5766 21.6527 39.5639 31.2725 49.3684Z" fill="#E6E9FD"/>
<path d="M28.2622 7.97861L29.0528 11.9754C28.6102 10.2987 27.0609 6.76655 21.951 7.77929L26.5914 6.86077C26.9611 6.78872 27.3443 6.86583 27.6573 7.07525C27.9703 7.28468 28.1878 7.60942 28.2622 7.97861V7.97861Z" fill="#E6E9FD"/>
<path d="M34.2025 39.0895L34.9953 43.0875C34.5527 41.4109 33.0034 37.8787 27.8932 38.892L32.5334 37.9726C32.9026 37.9009 33.2853 37.978 33.598 38.1872C33.9106 38.3964 34.1279 38.7208 34.2025 39.0895Z" fill="#E6E9FD"/>
</svg>
