<svg width="30" height="30" viewBox="0 0 30 30" fill="none" xmlns="http://www.w3.org/2000/svg">
<circle cx="15" cy="15" r="14.5" stroke="#40914C"/>
<path d="M5.48 19C5.39467 19 5.31467 18.968 5.24 18.904C5.176 18.8293 5.144 18.7493 5.144 18.664C5.144 18.6107 5.14933 18.5627 5.16 18.52L8.92 8.248C8.952 8.13067 9.016 8.02933 9.112 7.944C9.21867 7.848 9.36267 7.8 9.544 7.8H11.912C12.0933 7.8 12.232 7.848 12.328 7.944C12.4347 8.02933 12.504 8.13067 12.536 8.248L16.28 18.52C16.3013 18.5627 16.312 18.6107 16.312 18.664C16.312 18.7493 16.2747 18.8293 16.2 18.904C16.136 18.968 16.056 19 15.96 19H13.992C13.832 19 13.7093 18.9627 13.624 18.888C13.5493 18.8027 13.5013 18.728 13.48 18.664L12.856 17.032H8.584L7.976 18.664C7.95467 18.728 7.90667 18.8027 7.832 18.888C7.75733 18.9627 7.62933 19 7.448 19H5.48ZM9.24 14.728H12.216L10.712 10.504L9.24 14.728ZM16.8131 19C16.7491 19 16.6891 18.976 16.6331 18.928C16.5851 18.872 16.5611 18.812 16.5611 18.748C16.5611 18.708 16.5651 18.672 16.5731 18.64L19.3931 10.936C19.4171 10.848 19.4651 10.772 19.5371 10.708C19.6171 10.636 19.7251 10.6 19.8611 10.6H21.6371C21.7731 10.6 21.8771 10.636 21.9491 10.708C22.0291 10.772 22.0811 10.848 22.1051 10.936L24.9131 18.64C24.9291 18.672 24.9371 18.708 24.9371 18.748C24.9371 18.812 24.9091 18.872 24.8531 18.928C24.8051 18.976 24.7451 19 24.6731 19H23.1971C23.0771 19 22.9851 18.972 22.9211 18.916C22.8651 18.852 22.8291 18.796 22.8131 18.748L22.3451 17.524H19.1411L18.6851 18.748C18.6691 18.796 18.6331 18.852 18.5771 18.916C18.5211 18.972 18.4251 19 18.2891 19H16.8131ZM19.6331 15.796H21.8651L20.7371 12.628L19.6331 15.796Z" fill="#40914C"/>
</svg>
