<svg width="829" height="35" viewBox="0 0 829 35" fill="none" xmlns="http://www.w3.org/2000/svg">
<path d="M1.20853 27C0.944532 27 0.728531 26.916 0.560531 26.748C0.392531 26.58 0.308531 26.364 0.308531 26.1V2.7C0.308531 2.436 0.392531 2.22 0.560531 2.052C0.728531 1.884 0.944532 1.8 1.20853 1.8H4.48453C4.84453 1.8 5.10853 1.884 5.27653 2.052C5.44453 2.22 5.55253 2.352 5.60053 2.448L15.2125 17.46V2.7C15.2125 2.436 15.2965 2.22 15.4645 2.052C15.6325 1.884 15.8365 1.8 16.0765 1.8H19.7485C20.0125 1.8 20.2285 1.884 20.3965 2.052C20.5645 2.22 20.6485 2.436 20.6485 2.7V26.1C20.6485 26.34 20.5645 26.556 20.3965 26.748C20.2285 26.916 20.0125 27 19.7485 27H16.4365C16.0765 27 15.8125 26.916 15.6445 26.748C15.5005 26.556 15.3925 26.424 15.3205 26.352L5.74453 11.808V26.1C5.74453 26.364 5.66053 26.58 5.49253 26.748C5.32453 26.916 5.10853 27 4.84453 27H1.20853ZM31.0846 27.36C29.8126 27.36 28.6726 27.12 27.6646 26.64C26.6566 26.136 25.8526 25.464 25.2526 24.624C24.6526 23.784 24.3526 22.848 24.3526 21.816C24.3526 20.112 25.0366 18.768 26.4046 17.784C27.7966 16.8 29.6206 16.128 31.8766 15.768L36.5926 15.084V14.436C36.5926 13.5 36.3766 12.78 35.9446 12.276C35.5126 11.772 34.7566 11.52 33.6766 11.52C32.8846 11.52 32.2486 11.676 31.7686 11.988C31.2886 12.3 30.9166 12.708 30.6526 13.212C30.4606 13.524 30.1846 13.68 29.8246 13.68H26.4046C26.1406 13.68 25.9366 13.608 25.7926 13.464C25.6486 13.296 25.5886 13.104 25.6126 12.888C25.6126 12.48 25.7686 12 26.0806 11.448C26.3926 10.896 26.8726 10.356 27.5206 9.828C28.1686 9.276 28.9966 8.82 30.0046 8.46C31.0126 8.1 32.2486 7.92 33.7126 7.92C35.2246 7.92 36.5206 8.1 37.6006 8.46C38.6806 8.82 39.5446 9.324 40.1926 9.972C40.8406 10.62 41.3206 11.376 41.6326 12.24C41.9446 13.08 42.1006 13.992 42.1006 14.976V26.1C42.1006 26.364 42.0166 26.58 41.8486 26.748C41.6806 26.916 41.4646 27 41.2006 27H37.6726C37.4326 27 37.2286 26.916 37.0606 26.748C36.8926 26.58 36.8086 26.364 36.8086 26.1V24.768C36.4966 25.224 36.0766 25.656 35.5486 26.064C35.0206 26.448 34.3846 26.76 33.6406 27C32.9206 27.24 32.0686 27.36 31.0846 27.36ZM32.5246 23.616C33.3166 23.616 34.0246 23.448 34.6486 23.112C35.2726 22.776 35.7646 22.26 36.1246 21.564C36.4846 20.868 36.6646 19.992 36.6646 18.936V18.324L33.3166 18.864C32.0206 19.08 31.0726 19.404 30.4726 19.836C29.8726 20.268 29.5726 20.796 29.5726 21.42C29.5726 21.876 29.7046 22.272 29.9686 22.608C30.2566 22.944 30.6286 23.196 31.0846 23.364C31.5406 23.532 32.0206 23.616 32.5246 23.616ZM55.3188 27C53.8308 27 52.5588 26.76 51.5028 26.28C50.4468 25.776 49.6428 25.008 49.0908 23.976C48.5628 22.944 48.2988 21.648 48.2988 20.088V12.528H45.4908C45.2268 12.528 45.0108 12.444 44.8428 12.276C44.6748 12.108 44.5908 11.892 44.5908 11.628V9.18C44.5908 8.916 44.6748 8.7 44.8428 8.532C45.0108 8.364 45.2268 8.28 45.4908 8.28H48.2988V2.34C48.2988 2.076 48.3828 1.86 48.5508 1.692C48.7428 1.524 48.9588 1.44 49.1988 1.44H52.7268C52.9908 1.44 53.2068 1.524 53.3748 1.692C53.5428 1.86 53.6268 2.076 53.6268 2.34V8.28H58.1268C58.3668 8.28 58.5708 8.364 58.7388 8.532C58.9068 8.7 58.9908 8.916 58.9908 9.18V11.628C58.9908 11.892 58.9068 12.108 58.7388 12.276C58.5708 12.444 58.3668 12.528 58.1268 12.528H53.6268V19.656C53.6268 20.568 53.7828 21.288 54.0948 21.816C54.4308 22.32 55.0068 22.572 55.8228 22.572H58.4508C58.6908 22.572 58.8948 22.656 59.0628 22.824C59.2308 22.992 59.3148 23.196 59.3148 23.436V26.1C59.3148 26.364 59.2308 26.58 59.0628 26.748C58.8948 26.916 58.6908 27 58.4508 27H55.3188ZM63.3195 27C63.0795 27 62.8755 26.916 62.7075 26.748C62.5395 26.58 62.4555 26.364 62.4555 26.1V9.18C62.4555 8.916 62.5395 8.7 62.7075 8.532C62.8755 8.364 63.0795 8.28 63.3195 8.28H66.9195C67.1835 8.28 67.3995 8.364 67.5675 8.532C67.7355 8.7 67.8195 8.916 67.8195 9.18V26.1C67.8195 26.364 67.7355 26.58 67.5675 26.748C67.3995 26.916 67.1835 27 66.9195 27H63.3195ZM63.2115 5.4C62.9715 5.4 62.7675 5.316 62.5995 5.148C62.4315 4.98 62.3475 4.764 62.3475 4.5V1.62C62.3475 1.356 62.4315 1.14 62.5995 0.971998C62.7675 0.779999 62.9715 0.684 63.2115 0.684H66.9915C67.2555 0.684 67.4715 0.779999 67.6395 0.971998C67.8315 1.14 67.9275 1.356 67.9275 1.62V4.5C67.9275 4.764 67.8315 4.98 67.6395 5.148C67.4715 5.316 67.2555 5.4 66.9915 5.4H63.2115ZM81.043 27.36C79.051 27.36 77.383 27.036 76.039 26.388C74.695 25.716 73.663 24.768 72.943 23.544C72.247 22.32 71.863 20.892 71.791 19.26C71.767 18.78 71.755 18.24 71.755 17.64C71.755 17.016 71.767 16.476 71.791 16.02C71.863 14.364 72.271 12.936 73.015 11.736C73.759 10.512 74.803 9.576 76.147 8.928C77.491 8.256 79.123 7.92 81.043 7.92C82.939 7.92 84.559 8.256 85.903 8.928C87.247 9.576 88.291 10.512 89.035 11.736C89.779 12.936 90.187 14.364 90.259 16.02C90.307 16.476 90.331 17.016 90.331 17.64C90.331 18.24 90.307 18.78 90.259 19.26C90.187 20.892 89.791 22.32 89.071 23.544C88.375 24.768 87.355 25.716 86.011 26.388C84.667 27.036 83.011 27.36 81.043 27.36ZM81.043 23.4C82.219 23.4 83.107 23.04 83.707 22.32C84.307 21.576 84.631 20.496 84.679 19.08C84.703 18.72 84.715 18.24 84.715 17.64C84.715 17.04 84.703 16.56 84.679 16.2C84.631 14.808 84.307 13.74 83.707 12.996C83.107 12.252 82.219 11.88 81.043 11.88C79.867 11.88 78.967 12.252 78.343 12.996C77.743 13.74 77.419 14.808 77.371 16.2C77.347 16.56 77.335 17.04 77.335 17.64C77.335 18.24 77.347 18.72 77.371 19.08C77.419 20.496 77.743 21.576 78.343 22.32C78.967 23.04 79.867 23.4 81.043 23.4ZM94.9601 27C94.7201 27 94.5161 26.916 94.3481 26.748C94.1801 26.58 94.0961 26.364 94.0961 26.1V9.18C94.0961 8.916 94.1801 8.7 94.3481 8.532C94.5161 8.364 94.7201 8.28 94.9601 8.28H98.4881C98.7521 8.28 98.9681 8.364 99.1361 8.532C99.3041 8.7 99.3881 8.916 99.3881 9.18V10.584C100.012 9.816 100.816 9.18 101.8 8.676C102.784 8.172 103.984 7.92 105.4 7.92C106.816 7.92 108.052 8.244 109.108 8.892C110.188 9.516 111.028 10.44 111.628 11.664C112.252 12.864 112.564 14.328 112.564 16.056V26.1C112.564 26.364 112.468 26.58 112.276 26.748C112.108 26.916 111.904 27 111.664 27H107.848C107.584 27 107.368 26.916 107.2 26.748C107.032 26.58 106.948 26.364 106.948 26.1V16.272C106.948 15 106.636 14.016 106.012 13.32C105.412 12.6 104.524 12.24 103.348 12.24C102.22 12.24 101.32 12.6 100.648 13.32C99.9761 14.016 99.6401 15 99.6401 16.272V26.1C99.6401 26.364 99.5561 26.58 99.3881 26.748C99.2201 26.916 99.0161 27 98.7761 27H94.9601ZM122.385 27.36C121.113 27.36 119.973 27.12 118.965 26.64C117.957 26.136 117.153 25.464 116.553 24.624C115.953 23.784 115.653 22.848 115.653 21.816C115.653 20.112 116.337 18.768 117.705 17.784C119.097 16.8 120.921 16.128 123.177 15.768L127.893 15.084V14.436C127.893 13.5 127.677 12.78 127.245 12.276C126.813 11.772 126.057 11.52 124.977 11.52C124.185 11.52 123.549 11.676 123.069 11.988C122.589 12.3 122.217 12.708 121.953 13.212C121.761 13.524 121.485 13.68 121.125 13.68H117.705C117.441 13.68 117.237 13.608 117.093 13.464C116.949 13.296 116.889 13.104 116.913 12.888C116.913 12.48 117.069 12 117.381 11.448C117.693 10.896 118.173 10.356 118.821 9.828C119.469 9.276 120.297 8.82 121.305 8.46C122.313 8.1 123.549 7.92 125.013 7.92C126.525 7.92 127.821 8.1 128.901 8.46C129.981 8.82 130.845 9.324 131.493 9.972C132.141 10.62 132.621 11.376 132.933 12.24C133.245 13.08 133.401 13.992 133.401 14.976V26.1C133.401 26.364 133.317 26.58 133.149 26.748C132.981 26.916 132.765 27 132.501 27H128.973C128.733 27 128.529 26.916 128.361 26.748C128.193 26.58 128.109 26.364 128.109 26.1V24.768C127.797 25.224 127.377 25.656 126.849 26.064C126.321 26.448 125.685 26.76 124.941 27C124.221 27.24 123.369 27.36 122.385 27.36ZM123.825 23.616C124.617 23.616 125.325 23.448 125.949 23.112C126.573 22.776 127.065 22.26 127.425 21.564C127.785 20.868 127.965 19.992 127.965 18.936V18.324L124.617 18.864C123.321 19.08 122.373 19.404 121.773 19.836C121.173 20.268 120.873 20.796 120.873 21.42C120.873 21.876 121.005 22.272 121.269 22.608C121.557 22.944 121.929 23.196 122.385 23.364C122.841 23.532 123.321 23.616 123.825 23.616ZM138.66 27C138.396 27 138.18 26.916 138.012 26.748C137.844 26.58 137.76 26.364 137.76 26.1V2.34C137.76 2.076 137.844 1.86 138.012 1.692C138.18 1.524 138.396 1.44 138.66 1.44H142.26C142.5 1.44 142.704 1.524 142.872 1.692C143.04 1.86 143.124 2.076 143.124 2.34V26.1C143.124 26.364 143.04 26.58 142.872 26.748C142.704 26.916 142.5 27 142.26 27H138.66ZM161.616 27C161.352 27 161.136 26.916 160.968 26.748C160.8 26.58 160.716 26.364 160.716 26.1V6.804H154.164C153.924 6.804 153.72 6.72 153.552 6.552C153.384 6.384 153.3 6.18 153.3 5.94V2.7C153.3 2.436 153.384 2.22 153.552 2.052C153.72 1.884 153.924 1.8 154.164 1.8H173.028C173.292 1.8 173.508 1.884 173.676 2.052C173.844 2.22 173.928 2.436 173.928 2.7V5.94C173.928 6.18 173.844 6.384 173.676 6.552C173.508 6.72 173.292 6.804 173.028 6.804H166.512V26.1C166.512 26.364 166.428 26.58 166.26 26.748C166.092 26.916 165.876 27 165.612 27H161.616ZM182.112 27.36C179.352 27.36 177.156 26.592 175.524 25.056C173.916 23.52 173.064 21.288 172.968 18.36C172.968 18.168 172.968 17.916 172.968 17.604C172.968 17.268 172.968 17.004 172.968 16.812C173.064 14.964 173.484 13.38 174.228 12.06C174.972 10.716 176.016 9.696 177.36 9C178.704 8.28 180.276 7.92 182.076 7.92C184.092 7.92 185.772 8.34 187.116 9.18C188.484 9.996 189.504 11.124 190.176 12.564C190.872 13.98 191.22 15.612 191.22 17.46V18.288C191.22 18.528 191.124 18.732 190.932 18.9C190.764 19.068 190.56 19.152 190.32 19.152H178.548C178.548 19.176 178.548 19.224 178.548 19.296C178.548 19.344 178.548 19.392 178.548 19.44C178.572 20.208 178.716 20.916 178.98 21.564C179.268 22.188 179.664 22.692 180.168 23.076C180.696 23.46 181.32 23.652 182.04 23.652C182.64 23.652 183.132 23.568 183.516 23.4C183.9 23.232 184.212 23.028 184.452 22.788C184.716 22.548 184.908 22.344 185.028 22.176C185.244 21.936 185.412 21.792 185.532 21.744C185.676 21.672 185.892 21.636 186.18 21.636H189.924C190.164 21.636 190.356 21.708 190.5 21.852C190.668 21.972 190.74 22.152 190.716 22.392C190.692 22.776 190.488 23.256 190.104 23.832C189.744 24.384 189.204 24.936 188.484 25.488C187.764 26.016 186.864 26.46 185.784 26.82C184.728 27.18 183.504 27.36 182.112 27.36ZM178.548 15.876H185.604V15.804C185.604 14.94 185.46 14.196 185.172 13.572C184.908 12.924 184.512 12.42 183.984 12.06C183.456 11.7 182.82 11.52 182.076 11.52C181.332 11.52 180.696 11.7 180.168 12.06C179.64 12.42 179.232 12.924 178.944 13.572C178.68 14.196 178.548 14.94 178.548 15.804V15.876ZM195.719 27C195.455 27 195.239 26.916 195.071 26.748C194.903 26.58 194.819 26.364 194.819 26.1V2.34C194.819 2.076 194.903 1.86 195.071 1.692C195.239 1.524 195.455 1.44 195.719 1.44H199.319C199.559 1.44 199.763 1.524 199.931 1.692C200.099 1.86 200.183 2.076 200.183 2.34V26.1C200.183 26.364 200.099 26.58 199.931 26.748C199.763 26.916 199.559 27 199.319 27H195.719ZM213.085 27.36C210.325 27.36 208.129 26.592 206.497 25.056C204.889 23.52 204.037 21.288 203.941 18.36C203.941 18.168 203.941 17.916 203.941 17.604C203.941 17.268 203.941 17.004 203.941 16.812C204.037 14.964 204.457 13.38 205.201 12.06C205.945 10.716 206.989 9.696 208.333 9C209.677 8.28 211.249 7.92 213.049 7.92C215.065 7.92 216.745 8.34 218.089 9.18C219.457 9.996 220.477 11.124 221.149 12.564C221.845 13.98 222.193 15.612 222.193 17.46V18.288C222.193 18.528 222.097 18.732 221.905 18.9C221.737 19.068 221.533 19.152 221.293 19.152H209.521C209.521 19.176 209.521 19.224 209.521 19.296C209.521 19.344 209.521 19.392 209.521 19.44C209.545 20.208 209.689 20.916 209.953 21.564C210.241 22.188 210.637 22.692 211.141 23.076C211.669 23.46 212.293 23.652 213.013 23.652C213.613 23.652 214.105 23.568 214.489 23.4C214.873 23.232 215.185 23.028 215.425 22.788C215.689 22.548 215.881 22.344 216.001 22.176C216.217 21.936 216.385 21.792 216.505 21.744C216.649 21.672 216.865 21.636 217.153 21.636H220.897C221.137 21.636 221.329 21.708 221.473 21.852C221.641 21.972 221.713 22.152 221.689 22.392C221.665 22.776 221.461 23.256 221.077 23.832C220.717 24.384 220.177 24.936 219.457 25.488C218.737 26.016 217.837 26.46 216.757 26.82C215.701 27.18 214.477 27.36 213.085 27.36ZM209.521 15.876H216.577V15.804C216.577 14.94 216.433 14.196 216.145 13.572C215.881 12.924 215.485 12.42 214.957 12.06C214.429 11.7 213.793 11.52 213.049 11.52C212.305 11.52 211.669 11.7 211.141 12.06C210.613 12.42 210.205 12.924 209.917 13.572C209.653 14.196 209.521 14.94 209.521 15.804V15.876ZM235.033 27C234.793 27 234.577 26.916 234.385 26.748C234.217 26.58 234.133 26.364 234.133 26.1V2.7C234.133 2.436 234.217 2.22 234.385 2.052C234.577 1.884 234.793 1.8 235.033 1.8H238.381C238.741 1.8 239.005 1.896 239.173 2.088C239.365 2.28 239.497 2.424 239.569 2.52L246.193 14.724L252.889 2.52C252.937 2.424 253.045 2.28 253.213 2.088C253.405 1.896 253.681 1.8 254.041 1.8H257.389C257.653 1.8 257.869 1.884 258.037 2.052C258.205 2.22 258.289 2.436 258.289 2.7V26.1C258.289 26.364 258.205 26.58 258.037 26.748C257.869 26.916 257.653 27 257.389 27H253.717C253.477 27 253.273 26.916 253.105 26.748C252.937 26.58 252.853 26.364 252.853 26.1V11.556L248.281 20.124C248.161 20.34 248.005 20.532 247.813 20.7C247.621 20.868 247.369 20.952 247.057 20.952H245.365C245.053 20.952 244.801 20.868 244.609 20.7C244.417 20.532 244.261 20.34 244.141 20.124L239.569 11.556V26.1C239.569 26.364 239.485 26.58 239.317 26.748C239.149 26.916 238.945 27 238.705 27H235.033ZM271.585 27.36C268.825 27.36 266.629 26.592 264.997 25.056C263.389 23.52 262.537 21.288 262.441 18.36C262.441 18.168 262.441 17.916 262.441 17.604C262.441 17.268 262.441 17.004 262.441 16.812C262.537 14.964 262.957 13.38 263.701 12.06C264.445 10.716 265.489 9.696 266.833 9C268.177 8.28 269.749 7.92 271.549 7.92C273.565 7.92 275.245 8.34 276.589 9.18C277.957 9.996 278.977 11.124 279.649 12.564C280.345 13.98 280.693 15.612 280.693 17.46V18.288C280.693 18.528 280.597 18.732 280.405 18.9C280.237 19.068 280.033 19.152 279.793 19.152H268.021C268.021 19.176 268.021 19.224 268.021 19.296C268.021 19.344 268.021 19.392 268.021 19.44C268.045 20.208 268.189 20.916 268.453 21.564C268.741 22.188 269.137 22.692 269.641 23.076C270.169 23.46 270.793 23.652 271.513 23.652C272.113 23.652 272.605 23.568 272.989 23.4C273.373 23.232 273.685 23.028 273.925 22.788C274.189 22.548 274.381 22.344 274.501 22.176C274.717 21.936 274.885 21.792 275.005 21.744C275.149 21.672 275.365 21.636 275.653 21.636H279.397C279.637 21.636 279.829 21.708 279.973 21.852C280.141 21.972 280.213 22.152 280.189 22.392C280.165 22.776 279.961 23.256 279.577 23.832C279.217 24.384 278.677 24.936 277.957 25.488C277.237 26.016 276.337 26.46 275.257 26.82C274.201 27.18 272.977 27.36 271.585 27.36ZM268.021 15.876H275.077V15.804C275.077 14.94 274.933 14.196 274.645 13.572C274.381 12.924 273.985 12.42 273.457 12.06C272.929 11.7 272.293 11.52 271.549 11.52C270.805 11.52 270.169 11.7 269.641 12.06C269.113 12.42 268.705 12.924 268.417 13.572C268.153 14.196 268.021 14.94 268.021 15.804V15.876ZM285.155 27C284.915 27 284.711 26.916 284.543 26.748C284.375 26.58 284.291 26.364 284.291 26.1V9.18C284.291 8.916 284.375 8.7 284.543 8.532C284.711 8.364 284.915 8.28 285.155 8.28H288.683C288.947 8.28 289.163 8.364 289.331 8.532C289.499 8.7 289.583 8.916 289.583 9.18V10.584C290.207 9.816 291.011 9.18 291.995 8.676C292.979 8.172 294.179 7.92 295.595 7.92C297.011 7.92 298.247 8.244 299.303 8.892C300.383 9.516 301.223 10.44 301.823 11.664C302.447 12.864 302.759 14.328 302.759 16.056V26.1C302.759 26.364 302.663 26.58 302.471 26.748C302.303 26.916 302.099 27 301.859 27H298.043C297.779 27 297.563 26.916 297.395 26.748C297.227 26.58 297.143 26.364 297.143 26.1V16.272C297.143 15 296.831 14.016 296.207 13.32C295.607 12.6 294.719 12.24 293.543 12.24C292.415 12.24 291.515 12.6 290.843 13.32C290.171 14.016 289.835 15 289.835 16.272V26.1C289.835 26.364 289.751 26.58 289.583 26.748C289.415 26.916 289.211 27 288.971 27H285.155ZM315.862 27C314.374 27 313.102 26.76 312.046 26.28C310.99 25.776 310.186 25.008 309.634 23.976C309.106 22.944 308.842 21.648 308.842 20.088V12.528H306.034C305.77 12.528 305.554 12.444 305.386 12.276C305.218 12.108 305.134 11.892 305.134 11.628V9.18C305.134 8.916 305.218 8.7 305.386 8.532C305.554 8.364 305.77 8.28 306.034 8.28H308.842V2.34C308.842 2.076 308.926 1.86 309.094 1.692C309.286 1.524 309.502 1.44 309.742 1.44H313.27C313.534 1.44 313.75 1.524 313.918 1.692C314.086 1.86 314.17 2.076 314.17 2.34V8.28H318.67C318.91 8.28 319.114 8.364 319.282 8.532C319.45 8.7 319.534 8.916 319.534 9.18V11.628C319.534 11.892 319.45 12.108 319.282 12.276C319.114 12.444 318.91 12.528 318.67 12.528H314.17V19.656C314.17 20.568 314.326 21.288 314.638 21.816C314.974 22.32 315.55 22.572 316.366 22.572H318.994C319.234 22.572 319.438 22.656 319.606 22.824C319.774 22.992 319.858 23.196 319.858 23.436V26.1C319.858 26.364 319.774 26.58 319.606 26.748C319.438 26.916 319.234 27 318.994 27H315.862ZM328.506 27.36C327.234 27.36 326.094 27.12 325.086 26.64C324.078 26.136 323.274 25.464 322.674 24.624C322.074 23.784 321.774 22.848 321.774 21.816C321.774 20.112 322.458 18.768 323.826 17.784C325.218 16.8 327.042 16.128 329.298 15.768L334.014 15.084V14.436C334.014 13.5 333.798 12.78 333.366 12.276C332.934 11.772 332.178 11.52 331.098 11.52C330.306 11.52 329.67 11.676 329.19 11.988C328.71 12.3 328.338 12.708 328.074 13.212C327.882 13.524 327.606 13.68 327.246 13.68H323.826C323.562 13.68 323.358 13.608 323.214 13.464C323.07 13.296 323.01 13.104 323.034 12.888C323.034 12.48 323.19 12 323.502 11.448C323.814 10.896 324.294 10.356 324.942 9.828C325.59 9.276 326.418 8.82 327.426 8.46C328.434 8.1 329.67 7.92 331.134 7.92C332.646 7.92 333.942 8.1 335.022 8.46C336.102 8.82 336.966 9.324 337.614 9.972C338.262 10.62 338.742 11.376 339.054 12.24C339.366 13.08 339.522 13.992 339.522 14.976V26.1C339.522 26.364 339.438 26.58 339.27 26.748C339.102 26.916 338.886 27 338.622 27H335.094C334.854 27 334.65 26.916 334.482 26.748C334.314 26.58 334.23 26.364 334.23 26.1V24.768C333.918 25.224 333.498 25.656 332.97 26.064C332.442 26.448 331.806 26.76 331.062 27C330.342 27.24 329.49 27.36 328.506 27.36ZM329.946 23.616C330.738 23.616 331.446 23.448 332.07 23.112C332.694 22.776 333.186 22.26 333.546 21.564C333.906 20.868 334.086 19.992 334.086 18.936V18.324L330.738 18.864C329.442 19.08 328.494 19.404 327.894 19.836C327.294 20.268 326.994 20.796 326.994 21.42C326.994 21.876 327.126 22.272 327.39 22.608C327.678 22.944 328.05 23.196 328.506 23.364C328.962 23.532 329.442 23.616 329.946 23.616ZM344.781 27C344.517 27 344.301 26.916 344.133 26.748C343.965 26.58 343.881 26.364 343.881 26.1V2.34C343.881 2.076 343.965 1.86 344.133 1.692C344.301 1.524 344.517 1.44 344.781 1.44H348.381C348.621 1.44 348.825 1.524 348.993 1.692C349.161 1.86 349.245 2.076 349.245 2.34V26.1C349.245 26.364 349.161 26.58 348.993 26.748C348.825 26.916 348.621 27 348.381 27H344.781ZM363.037 27C362.773 27 362.557 26.916 362.389 26.748C362.221 26.58 362.137 26.364 362.137 26.1V2.7C362.137 2.436 362.221 2.22 362.389 2.052C362.557 1.884 362.773 1.8 363.037 1.8H366.961C367.225 1.8 367.441 1.884 367.609 2.052C367.777 2.22 367.861 2.436 367.861 2.7V11.7H377.617V2.7C377.617 2.436 377.701 2.22 377.869 2.052C378.037 1.884 378.253 1.8 378.517 1.8H382.441C382.705 1.8 382.921 1.884 383.089 2.052C383.257 2.22 383.341 2.436 383.341 2.7V26.1C383.341 26.364 383.257 26.58 383.089 26.748C382.921 26.916 382.705 27 382.441 27H378.517C378.253 27 378.037 26.916 377.869 26.748C377.701 26.58 377.617 26.364 377.617 26.1V16.812H367.861V26.1C367.861 26.364 367.777 26.58 367.609 26.748C367.441 26.916 367.225 27 366.961 27H363.037ZM396.636 27.36C393.876 27.36 391.68 26.592 390.048 25.056C388.44 23.52 387.588 21.288 387.492 18.36C387.492 18.168 387.492 17.916 387.492 17.604C387.492 17.268 387.492 17.004 387.492 16.812C387.588 14.964 388.008 13.38 388.752 12.06C389.496 10.716 390.54 9.696 391.884 9C393.228 8.28 394.8 7.92 396.6 7.92C398.616 7.92 400.296 8.34 401.64 9.18C403.008 9.996 404.028 11.124 404.7 12.564C405.396 13.98 405.744 15.612 405.744 17.46V18.288C405.744 18.528 405.648 18.732 405.456 18.9C405.288 19.068 405.084 19.152 404.844 19.152H393.072C393.072 19.176 393.072 19.224 393.072 19.296C393.072 19.344 393.072 19.392 393.072 19.44C393.096 20.208 393.24 20.916 393.504 21.564C393.792 22.188 394.188 22.692 394.692 23.076C395.22 23.46 395.844 23.652 396.564 23.652C397.164 23.652 397.656 23.568 398.04 23.4C398.424 23.232 398.736 23.028 398.976 22.788C399.24 22.548 399.432 22.344 399.552 22.176C399.768 21.936 399.936 21.792 400.056 21.744C400.2 21.672 400.416 21.636 400.704 21.636H404.448C404.688 21.636 404.88 21.708 405.024 21.852C405.192 21.972 405.264 22.152 405.24 22.392C405.216 22.776 405.012 23.256 404.628 23.832C404.268 24.384 403.728 24.936 403.008 25.488C402.288 26.016 401.388 26.46 400.308 26.82C399.252 27.18 398.028 27.36 396.636 27.36ZM393.072 15.876H400.128V15.804C400.128 14.94 399.984 14.196 399.696 13.572C399.432 12.924 399.036 12.42 398.508 12.06C397.98 11.7 397.344 11.52 396.6 11.52C395.856 11.52 395.22 11.7 394.692 12.06C394.164 12.42 393.756 12.924 393.468 13.572C393.204 14.196 393.072 14.94 393.072 15.804V15.876ZM414.85 27.36C413.578 27.36 412.438 27.12 411.43 26.64C410.422 26.136 409.618 25.464 409.018 24.624C408.418 23.784 408.118 22.848 408.118 21.816C408.118 20.112 408.802 18.768 410.17 17.784C411.562 16.8 413.386 16.128 415.642 15.768L420.358 15.084V14.436C420.358 13.5 420.142 12.78 419.71 12.276C419.278 11.772 418.522 11.52 417.442 11.52C416.65 11.52 416.014 11.676 415.534 11.988C415.054 12.3 414.682 12.708 414.418 13.212C414.226 13.524 413.95 13.68 413.59 13.68H410.17C409.906 13.68 409.702 13.608 409.558 13.464C409.414 13.296 409.354 13.104 409.378 12.888C409.378 12.48 409.534 12 409.846 11.448C410.158 10.896 410.638 10.356 411.286 9.828C411.934 9.276 412.762 8.82 413.77 8.46C414.778 8.1 416.014 7.92 417.478 7.92C418.99 7.92 420.286 8.1 421.366 8.46C422.446 8.82 423.31 9.324 423.958 9.972C424.606 10.62 425.086 11.376 425.398 12.24C425.71 13.08 425.866 13.992 425.866 14.976V26.1C425.866 26.364 425.782 26.58 425.614 26.748C425.446 26.916 425.23 27 424.966 27H421.438C421.198 27 420.994 26.916 420.826 26.748C420.658 26.58 420.574 26.364 420.574 26.1V24.768C420.262 25.224 419.842 25.656 419.314 26.064C418.786 26.448 418.15 26.76 417.406 27C416.686 27.24 415.834 27.36 414.85 27.36ZM416.29 23.616C417.082 23.616 417.79 23.448 418.414 23.112C419.038 22.776 419.53 22.26 419.89 21.564C420.25 20.868 420.43 19.992 420.43 18.936V18.324L417.082 18.864C415.786 19.08 414.838 19.404 414.238 19.836C413.638 20.268 413.338 20.796 413.338 21.42C413.338 21.876 413.47 22.272 413.734 22.608C414.022 22.944 414.394 23.196 414.85 23.364C415.306 23.532 415.786 23.616 416.29 23.616ZM431.125 27C430.861 27 430.645 26.916 430.477 26.748C430.309 26.58 430.225 26.364 430.225 26.1V2.34C430.225 2.076 430.309 1.86 430.477 1.692C430.645 1.524 430.861 1.44 431.125 1.44H434.725C434.965 1.44 435.169 1.524 435.337 1.692C435.505 1.86 435.589 2.076 435.589 2.34V26.1C435.589 26.364 435.505 26.58 435.337 26.748C435.169 26.916 434.965 27 434.725 27H431.125ZM449.139 27C447.651 27 446.379 26.76 445.323 26.28C444.267 25.776 443.463 25.008 442.911 23.976C442.383 22.944 442.119 21.648 442.119 20.088V12.528H439.311C439.047 12.528 438.831 12.444 438.663 12.276C438.495 12.108 438.411 11.892 438.411 11.628V9.18C438.411 8.916 438.495 8.7 438.663 8.532C438.831 8.364 439.047 8.28 439.311 8.28H442.119V2.34C442.119 2.076 442.203 1.86 442.371 1.692C442.563 1.524 442.779 1.44 443.019 1.44H446.547C446.811 1.44 447.027 1.524 447.195 1.692C447.363 1.86 447.447 2.076 447.447 2.34V8.28H451.947C452.187 8.28 452.391 8.364 452.559 8.532C452.727 8.7 452.811 8.916 452.811 9.18V11.628C452.811 11.892 452.727 12.108 452.559 12.276C452.391 12.444 452.187 12.528 451.947 12.528H447.447V19.656C447.447 20.568 447.603 21.288 447.915 21.816C448.251 22.32 448.827 22.572 449.643 22.572H452.271C452.511 22.572 452.715 22.656 452.883 22.824C453.051 22.992 453.135 23.196 453.135 23.436V26.1C453.135 26.364 453.051 26.58 452.883 26.748C452.715 26.916 452.511 27 452.271 27H449.139ZM457.176 27C456.912 27 456.696 26.916 456.528 26.748C456.36 26.58 456.276 26.364 456.276 26.1V2.34C456.276 2.076 456.36 1.86 456.528 1.692C456.696 1.524 456.912 1.44 457.176 1.44H461.064C461.304 1.44 461.508 1.524 461.676 1.692C461.844 1.86 461.928 2.076 461.928 2.34V10.44C462.576 9.672 463.368 9.06 464.304 8.604C465.24 8.148 466.368 7.92 467.688 7.92C469.104 7.92 470.352 8.244 471.432 8.892C472.536 9.516 473.4 10.44 474.024 11.664C474.648 12.864 474.96 14.328 474.96 16.056V26.1C474.96 26.364 474.876 26.58 474.708 26.748C474.54 26.916 474.324 27 474.06 27H470.136C469.896 27 469.692 26.916 469.524 26.748C469.356 26.58 469.272 26.364 469.272 26.1V16.272C469.272 15 468.96 14.016 468.336 13.32C467.712 12.6 466.824 12.24 465.672 12.24C464.544 12.24 463.632 12.6 462.936 13.32C462.264 14.016 461.928 15 461.928 16.272V26.1C461.928 26.364 461.844 26.58 461.676 26.748C461.508 26.916 461.304 27 461.064 27H457.176ZM488.509 27C488.245 27 488.029 26.916 487.861 26.748C487.693 26.58 487.609 26.364 487.609 26.1V2.7C487.609 2.436 487.693 2.22 487.861 2.052C488.029 1.884 488.245 1.8 488.509 1.8H498.337C500.281 1.8 501.961 2.1 503.377 2.7C504.817 3.3 505.933 4.212 506.725 5.436C507.541 6.636 507.949 8.136 507.949 9.936C507.949 11.76 507.541 13.272 506.725 14.472C505.933 15.648 504.817 16.524 503.377 17.1C501.961 17.676 500.281 17.964 498.337 17.964H493.513V26.1C493.513 26.364 493.429 26.58 493.261 26.748C493.093 26.916 492.877 27 492.613 27H488.509ZM493.405 13.5H498.157C499.381 13.5 500.329 13.2 501.001 12.6C501.697 12 502.045 11.1 502.045 9.9C502.045 8.844 501.733 7.98 501.109 7.308C500.509 6.636 499.525 6.3 498.157 6.3H493.405V13.5ZM512.089 27C511.849 27 511.645 26.916 511.477 26.748C511.309 26.58 511.225 26.364 511.225 26.1V9.18C511.225 8.94 511.309 8.736 511.477 8.568C511.645 8.376 511.849 8.28 512.089 8.28H515.617C515.857 8.28 516.061 8.376 516.229 8.568C516.421 8.736 516.517 8.94 516.517 9.18V10.62C517.117 9.876 517.849 9.3 518.713 8.892C519.601 8.484 520.621 8.28 521.773 8.28H523.321C523.561 8.28 523.765 8.364 523.933 8.532C524.101 8.7 524.185 8.916 524.185 9.18V12.276C524.185 12.54 524.101 12.756 523.933 12.924C523.765 13.092 523.561 13.176 523.321 13.176H520.153C519.097 13.176 518.269 13.476 517.669 14.076C517.069 14.652 516.769 15.48 516.769 16.56V26.1C516.769 26.364 516.685 26.58 516.517 26.748C516.349 26.916 516.133 27 515.869 27H512.089ZM535.227 27.36C533.235 27.36 531.567 27.036 530.223 26.388C528.879 25.716 527.847 24.768 527.127 23.544C526.431 22.32 526.047 20.892 525.975 19.26C525.951 18.78 525.939 18.24 525.939 17.64C525.939 17.016 525.951 16.476 525.975 16.02C526.047 14.364 526.455 12.936 527.199 11.736C527.943 10.512 528.987 9.576 530.331 8.928C531.675 8.256 533.307 7.92 535.227 7.92C537.123 7.92 538.743 8.256 540.087 8.928C541.431 9.576 542.475 10.512 543.219 11.736C543.963 12.936 544.371 14.364 544.443 16.02C544.491 16.476 544.515 17.016 544.515 17.64C544.515 18.24 544.491 18.78 544.443 19.26C544.371 20.892 543.975 22.32 543.255 23.544C542.559 24.768 541.539 25.716 540.195 26.388C538.851 27.036 537.195 27.36 535.227 27.36ZM535.227 23.4C536.403 23.4 537.291 23.04 537.891 22.32C538.491 21.576 538.815 20.496 538.863 19.08C538.887 18.72 538.899 18.24 538.899 17.64C538.899 17.04 538.887 16.56 538.863 16.2C538.815 14.808 538.491 13.74 537.891 12.996C537.291 12.252 536.403 11.88 535.227 11.88C534.051 11.88 533.151 12.252 532.527 12.996C531.927 13.74 531.603 14.808 531.555 16.2C531.531 16.56 531.519 17.04 531.519 17.64C531.519 18.24 531.531 18.72 531.555 19.08C531.603 20.496 531.927 21.576 532.527 22.32C533.151 23.04 534.051 23.4 535.227 23.4ZM557.064 34.92C555.288 34.92 553.812 34.68 552.636 34.2C551.46 33.744 550.524 33.18 549.828 32.508C549.156 31.86 548.676 31.212 548.388 30.564C548.1 29.916 547.944 29.412 547.92 29.052C547.896 28.788 547.98 28.572 548.172 28.404C548.364 28.236 548.58 28.152 548.82 28.152H552.672C552.888 28.152 553.068 28.2 553.212 28.296C553.38 28.416 553.512 28.608 553.608 28.872C553.728 29.16 553.896 29.46 554.112 29.772C554.328 30.108 554.652 30.384 555.084 30.6C555.54 30.816 556.14 30.924 556.884 30.924C557.724 30.924 558.42 30.804 558.972 30.564C559.524 30.324 559.932 29.916 560.196 29.34C560.484 28.764 560.628 27.984 560.628 27V24.588C560.052 25.212 559.32 25.728 558.432 26.136C557.568 26.544 556.5 26.748 555.228 26.748C553.98 26.748 552.876 26.556 551.916 26.172C550.98 25.764 550.2 25.2 549.576 24.48C548.952 23.736 548.472 22.848 548.136 21.816C547.8 20.784 547.608 19.62 547.56 18.324C547.536 17.676 547.536 17.04 547.56 16.416C547.608 15.168 547.8 14.028 548.136 12.996C548.472 11.964 548.952 11.076 549.576 10.332C550.2 9.564 550.98 8.976 551.916 8.568C552.876 8.136 553.98 7.92 555.228 7.92C556.548 7.92 557.676 8.172 558.612 8.676C559.548 9.18 560.316 9.804 560.916 10.548V9.18C560.916 8.94 561 8.736 561.168 8.568C561.336 8.376 561.54 8.28 561.78 8.28H565.308C565.548 8.28 565.752 8.376 565.92 8.568C566.112 8.736 566.208 8.94 566.208 9.18L566.244 26.496C566.244 28.296 565.896 29.82 565.2 31.068C564.504 32.316 563.472 33.264 562.104 33.912C560.76 34.584 559.08 34.92 557.064 34.92ZM556.884 22.536C557.748 22.536 558.444 22.344 558.972 21.96C559.524 21.552 559.932 21.048 560.196 20.448C560.46 19.824 560.604 19.176 560.628 18.504C560.652 18.24 560.664 17.868 560.664 17.388C560.664 16.884 560.652 16.5 560.628 16.236C560.604 15.564 560.46 14.928 560.196 14.328C559.932 13.704 559.524 13.2 558.972 12.816C558.444 12.432 557.748 12.24 556.884 12.24C555.972 12.24 555.252 12.444 554.724 12.852C554.196 13.236 553.812 13.752 553.572 14.4C553.332 15.048 553.188 15.756 553.14 16.524C553.116 17.1 553.116 17.664 553.14 18.216C553.188 19.008 553.332 19.728 553.572 20.376C553.812 21.024 554.196 21.552 554.724 21.96C555.252 22.344 555.972 22.536 556.884 22.536ZM571.644 27C571.404 27 571.2 26.916 571.032 26.748C570.864 26.58 570.78 26.364 570.78 26.1V9.18C570.78 8.94 570.864 8.736 571.032 8.568C571.2 8.376 571.404 8.28 571.644 8.28H575.172C575.412 8.28 575.616 8.376 575.784 8.568C575.976 8.736 576.072 8.94 576.072 9.18V10.62C576.672 9.876 577.404 9.3 578.268 8.892C579.156 8.484 580.176 8.28 581.328 8.28H582.876C583.116 8.28 583.32 8.364 583.488 8.532C583.656 8.7 583.74 8.916 583.74 9.18V12.276C583.74 12.54 583.656 12.756 583.488 12.924C583.32 13.092 583.116 13.176 582.876 13.176H579.708C578.652 13.176 577.824 13.476 577.224 14.076C576.624 14.652 576.324 15.48 576.324 16.56V26.1C576.324 26.364 576.24 26.58 576.072 26.748C575.904 26.916 575.688 27 575.424 27H571.644ZM591.616 27.36C590.344 27.36 589.204 27.12 588.196 26.64C587.188 26.136 586.384 25.464 585.784 24.624C585.184 23.784 584.884 22.848 584.884 21.816C584.884 20.112 585.568 18.768 586.936 17.784C588.328 16.8 590.152 16.128 592.408 15.768L597.124 15.084V14.436C597.124 13.5 596.908 12.78 596.476 12.276C596.044 11.772 595.288 11.52 594.208 11.52C593.416 11.52 592.78 11.676 592.3 11.988C591.82 12.3 591.448 12.708 591.184 13.212C590.992 13.524 590.716 13.68 590.356 13.68H586.936C586.672 13.68 586.468 13.608 586.324 13.464C586.18 13.296 586.12 13.104 586.144 12.888C586.144 12.48 586.3 12 586.612 11.448C586.924 10.896 587.404 10.356 588.052 9.828C588.7 9.276 589.528 8.82 590.536 8.46C591.544 8.1 592.78 7.92 594.244 7.92C595.756 7.92 597.052 8.1 598.132 8.46C599.212 8.82 600.076 9.324 600.724 9.972C601.372 10.62 601.852 11.376 602.164 12.24C602.476 13.08 602.632 13.992 602.632 14.976V26.1C602.632 26.364 602.548 26.58 602.38 26.748C602.212 26.916 601.996 27 601.732 27H598.204C597.964 27 597.76 26.916 597.592 26.748C597.424 26.58 597.34 26.364 597.34 26.1V24.768C597.028 25.224 596.608 25.656 596.08 26.064C595.552 26.448 594.916 26.76 594.172 27C593.452 27.24 592.6 27.36 591.616 27.36ZM593.056 23.616C593.848 23.616 594.556 23.448 595.18 23.112C595.804 22.776 596.296 22.26 596.656 21.564C597.016 20.868 597.196 19.992 597.196 18.936V18.324L593.848 18.864C592.552 19.08 591.604 19.404 591.004 19.836C590.404 20.268 590.104 20.796 590.104 21.42C590.104 21.876 590.236 22.272 590.5 22.608C590.788 22.944 591.16 23.196 591.616 23.364C592.072 23.532 592.552 23.616 593.056 23.616ZM607.855 27C607.615 27 607.411 26.916 607.243 26.748C607.075 26.58 606.991 26.364 606.991 26.1V9.18C606.991 8.916 607.075 8.7 607.243 8.532C607.411 8.364 607.615 8.28 607.855 8.28H611.203C611.443 8.28 611.647 8.364 611.815 8.532C612.007 8.7 612.103 8.916 612.103 9.18V10.404C612.583 9.732 613.243 9.156 614.083 8.676C614.947 8.196 615.967 7.944 617.143 7.92C619.927 7.872 621.835 8.928 622.867 11.088C623.419 10.152 624.211 9.396 625.243 8.82C626.299 8.22 627.451 7.92 628.699 7.92C629.947 7.92 631.075 8.208 632.083 8.784C633.091 9.336 633.883 10.2 634.459 11.376C635.059 12.528 635.359 14.016 635.359 15.84V26.1C635.359 26.364 635.275 26.58 635.107 26.748C634.939 26.916 634.735 27 634.495 27H630.931C630.691 27 630.487 26.916 630.319 26.748C630.151 26.58 630.067 26.364 630.067 26.1V16.128C630.067 15.144 629.923 14.376 629.635 13.824C629.347 13.248 628.963 12.84 628.483 12.6C628.027 12.36 627.511 12.24 626.935 12.24C626.431 12.24 625.939 12.36 625.459 12.6C625.003 12.84 624.619 13.248 624.307 13.824C624.019 14.376 623.875 15.144 623.875 16.128V26.1C623.875 26.364 623.791 26.58 623.623 26.748C623.455 26.916 623.239 27 622.975 27H619.447C619.183 27 618.967 26.916 618.799 26.748C618.631 26.58 618.547 26.364 618.547 26.1V16.128C618.547 15.144 618.403 14.376 618.115 13.824C617.827 13.248 617.443 12.84 616.963 12.6C616.507 12.36 616.003 12.24 615.451 12.24C614.947 12.24 614.455 12.372 613.975 12.636C613.495 12.876 613.099 13.272 612.787 13.824C612.499 14.376 612.355 15.132 612.355 16.092V26.1C612.355 26.364 612.271 26.58 612.103 26.748C611.935 26.916 611.731 27 611.491 27H607.855ZM640.585 27C640.345 27 640.141 26.916 639.973 26.748C639.805 26.58 639.721 26.364 639.721 26.1V9.18C639.721 8.916 639.805 8.7 639.973 8.532C640.141 8.364 640.345 8.28 640.585 8.28H643.933C644.173 8.28 644.377 8.364 644.545 8.532C644.737 8.7 644.833 8.916 644.833 9.18V10.404C645.313 9.732 645.973 9.156 646.813 8.676C647.677 8.196 648.697 7.944 649.873 7.92C652.657 7.872 654.565 8.928 655.597 11.088C656.149 10.152 656.941 9.396 657.973 8.82C659.029 8.22 660.181 7.92 661.429 7.92C662.677 7.92 663.805 8.208 664.813 8.784C665.821 9.336 666.613 10.2 667.189 11.376C667.789 12.528 668.089 14.016 668.089 15.84V26.1C668.089 26.364 668.005 26.58 667.837 26.748C667.669 26.916 667.465 27 667.225 27H663.661C663.421 27 663.217 26.916 663.049 26.748C662.881 26.58 662.797 26.364 662.797 26.1V16.128C662.797 15.144 662.653 14.376 662.365 13.824C662.077 13.248 661.693 12.84 661.213 12.6C660.757 12.36 660.241 12.24 659.665 12.24C659.161 12.24 658.669 12.36 658.189 12.6C657.733 12.84 657.349 13.248 657.037 13.824C656.749 14.376 656.605 15.144 656.605 16.128V26.1C656.605 26.364 656.521 26.58 656.353 26.748C656.185 26.916 655.969 27 655.705 27H652.177C651.913 27 651.697 26.916 651.529 26.748C651.361 26.58 651.277 26.364 651.277 26.1V16.128C651.277 15.144 651.133 14.376 650.845 13.824C650.557 13.248 650.173 12.84 649.693 12.6C649.237 12.36 648.733 12.24 648.181 12.24C647.677 12.24 647.185 12.372 646.705 12.636C646.225 12.876 645.829 13.272 645.517 13.824C645.229 14.376 645.085 15.132 645.085 16.092V26.1C645.085 26.364 645.001 26.58 644.833 26.748C644.665 26.916 644.461 27 644.221 27H640.585ZM680.804 27.36C678.044 27.36 675.848 26.592 674.216 25.056C672.608 23.52 671.756 21.288 671.66 18.36C671.66 18.168 671.66 17.916 671.66 17.604C671.66 17.268 671.66 17.004 671.66 16.812C671.756 14.964 672.176 13.38 672.92 12.06C673.664 10.716 674.708 9.696 676.052 9C677.396 8.28 678.968 7.92 680.768 7.92C682.784 7.92 684.464 8.34 685.808 9.18C687.176 9.996 688.196 11.124 688.868 12.564C689.564 13.98 689.912 15.612 689.912 17.46V18.288C689.912 18.528 689.816 18.732 689.624 18.9C689.456 19.068 689.252 19.152 689.012 19.152H677.24C677.24 19.176 677.24 19.224 677.24 19.296C677.24 19.344 677.24 19.392 677.24 19.44C677.264 20.208 677.408 20.916 677.672 21.564C677.96 22.188 678.356 22.692 678.86 23.076C679.388 23.46 680.012 23.652 680.732 23.652C681.332 23.652 681.824 23.568 682.208 23.4C682.592 23.232 682.904 23.028 683.144 22.788C683.408 22.548 683.6 22.344 683.72 22.176C683.936 21.936 684.104 21.792 684.224 21.744C684.368 21.672 684.584 21.636 684.872 21.636H688.616C688.856 21.636 689.048 21.708 689.192 21.852C689.36 21.972 689.432 22.152 689.408 22.392C689.384 22.776 689.18 23.256 688.796 23.832C688.436 24.384 687.896 24.936 687.176 25.488C686.456 26.016 685.556 26.46 684.476 26.82C683.42 27.18 682.196 27.36 680.804 27.36ZM677.24 15.876H684.296V15.804C684.296 14.94 684.152 14.196 683.864 13.572C683.6 12.924 683.204 12.42 682.676 12.06C682.148 11.7 681.512 11.52 680.768 11.52C680.024 11.52 679.388 11.7 678.86 12.06C678.332 12.42 677.924 12.924 677.636 13.572C677.372 14.196 677.24 14.94 677.24 15.804V15.876ZM710.024 27.36C708.032 27.36 706.364 27.036 705.02 26.388C703.676 25.716 702.644 24.768 701.924 23.544C701.228 22.32 700.844 20.892 700.772 19.26C700.748 18.78 700.736 18.24 700.736 17.64C700.736 17.016 700.748 16.476 700.772 16.02C700.844 14.364 701.252 12.936 701.996 11.736C702.74 10.512 703.784 9.576 705.128 8.928C706.472 8.256 708.104 7.92 710.024 7.92C711.92 7.92 713.54 8.256 714.884 8.928C716.228 9.576 717.272 10.512 718.016 11.736C718.76 12.936 719.168 14.364 719.24 16.02C719.288 16.476 719.312 17.016 719.312 17.64C719.312 18.24 719.288 18.78 719.24 19.26C719.168 20.892 718.772 22.32 718.052 23.544C717.356 24.768 716.336 25.716 714.992 26.388C713.648 27.036 711.992 27.36 710.024 27.36ZM710.024 23.4C711.2 23.4 712.088 23.04 712.688 22.32C713.288 21.576 713.612 20.496 713.66 19.08C713.684 18.72 713.696 18.24 713.696 17.64C713.696 17.04 713.684 16.56 713.66 16.2C713.612 14.808 713.288 13.74 712.688 12.996C712.088 12.252 711.2 11.88 710.024 11.88C708.848 11.88 707.948 12.252 707.324 12.996C706.724 13.74 706.4 14.808 706.352 16.2C706.328 16.56 706.316 17.04 706.316 17.64C706.316 18.24 706.328 18.72 706.352 19.08C706.4 20.496 706.724 21.576 707.324 22.32C707.948 23.04 708.848 23.4 710.024 23.4ZM725.853 27C725.589 27 725.373 26.916 725.205 26.748C725.037 26.58 724.953 26.364 724.953 26.1V12.528H722.145C721.881 12.528 721.665 12.444 721.497 12.276C721.329 12.108 721.245 11.892 721.245 11.628V9.18C721.245 8.916 721.329 8.7 721.497 8.532C721.665 8.364 721.881 8.28 722.145 8.28H724.953V6.984C724.953 5.448 725.241 4.188 725.817 3.204C726.393 2.22 727.233 1.5 728.337 1.044C729.441 0.588 730.797 0.36 732.405 0.36H735.033C735.297 0.36 735.513 0.443999 735.681 0.611999C735.849 0.779999 735.933 0.995999 735.933 1.26V3.708C735.933 3.972 735.849 4.188 735.681 4.356C735.513 4.524 735.297 4.608 735.033 4.608H732.621C731.733 4.608 731.109 4.824 730.749 5.256C730.413 5.688 730.245 6.324 730.245 7.164V8.28H734.673C734.937 8.28 735.153 8.364 735.321 8.532C735.489 8.7 735.573 8.916 735.573 9.18V11.628C735.573 11.892 735.489 12.108 735.321 12.276C735.153 12.444 734.937 12.528 734.673 12.528H730.245V26.1C730.245 26.364 730.161 26.58 729.993 26.748C729.825 26.916 729.621 27 729.381 27H725.853ZM746.802 27C746.538 27 746.322 26.916 746.154 26.748C745.986 26.58 745.902 26.364 745.902 26.1V2.7C745.902 2.436 745.986 2.22 746.154 2.052C746.322 1.884 746.538 1.8 746.802 1.8H750.87C751.134 1.8 751.35 1.884 751.518 2.052C751.686 2.22 751.77 2.436 751.77 2.7V26.1C751.77 26.364 751.686 26.58 751.518 26.748C751.35 26.916 751.134 27 750.87 27H746.802ZM757.55 27C757.31 27 757.106 26.916 756.938 26.748C756.77 26.58 756.686 26.364 756.686 26.1V9.18C756.686 8.916 756.77 8.7 756.938 8.532C757.106 8.364 757.31 8.28 757.55 8.28H761.078C761.342 8.28 761.558 8.364 761.726 8.532C761.894 8.7 761.978 8.916 761.978 9.18V10.584C762.602 9.816 763.406 9.18 764.39 8.676C765.374 8.172 766.574 7.92 767.99 7.92C769.406 7.92 770.642 8.244 771.698 8.892C772.778 9.516 773.618 10.44 774.218 11.664C774.842 12.864 775.154 14.328 775.154 16.056V26.1C775.154 26.364 775.058 26.58 774.866 26.748C774.698 26.916 774.494 27 774.254 27H770.438C770.174 27 769.958 26.916 769.79 26.748C769.622 26.58 769.538 26.364 769.538 26.1V16.272C769.538 15 769.226 14.016 768.602 13.32C768.002 12.6 767.114 12.24 765.938 12.24C764.81 12.24 763.91 12.6 763.238 13.32C762.566 14.016 762.23 15 762.23 16.272V26.1C762.23 26.364 762.146 26.58 761.978 26.748C761.81 26.916 761.606 27 761.366 27H757.55ZM786.415 27.36C785.215 27.36 784.147 27.168 783.211 26.784C782.275 26.376 781.483 25.8 780.835 25.056C780.187 24.288 779.695 23.388 779.359 22.356C779.023 21.3 778.819 20.136 778.747 18.864C778.723 18.408 778.711 18 778.711 17.64C778.711 17.256 778.723 16.848 778.747 16.416C778.795 15.168 778.987 14.028 779.323 12.996C779.683 11.964 780.175 11.076 780.799 10.332C781.447 9.564 782.239 8.976 783.175 8.568C784.135 8.136 785.215 7.92 786.415 7.92C787.663 7.92 788.731 8.136 789.619 8.568C790.507 8.976 791.239 9.516 791.815 10.188V2.34C791.815 2.076 791.899 1.86 792.067 1.692C792.235 1.524 792.451 1.44 792.715 1.44H796.423C796.663 1.44 796.867 1.524 797.035 1.692C797.203 1.86 797.287 2.076 797.287 2.34V26.1C797.287 26.364 797.203 26.58 797.035 26.748C796.867 26.916 796.663 27 796.423 27H792.967C792.727 27 792.523 26.916 792.355 26.748C792.187 26.58 792.103 26.364 792.103 26.1V24.876C791.503 25.596 790.747 26.196 789.835 26.676C788.923 27.132 787.783 27.36 786.415 27.36ZM788.071 23.04C788.959 23.04 789.667 22.836 790.195 22.428C790.747 22.02 791.143 21.504 791.383 20.88C791.647 20.256 791.791 19.584 791.815 18.864C791.863 18.408 791.887 17.952 791.887 17.496C791.887 17.04 791.863 16.596 791.815 16.164C791.791 15.492 791.647 14.868 791.383 14.292C791.119 13.692 790.711 13.2 790.159 12.816C789.631 12.432 788.935 12.24 788.071 12.24C787.159 12.24 786.439 12.444 785.911 12.852C785.383 13.236 784.999 13.752 784.759 14.4C784.543 15.048 784.411 15.756 784.363 16.524C784.291 17.268 784.291 18.012 784.363 18.756C784.411 19.524 784.543 20.232 784.759 20.88C784.999 21.528 785.383 22.056 785.911 22.464C786.439 22.848 787.159 23.04 788.071 23.04ZM802.726 27C802.486 27 802.282 26.916 802.114 26.748C801.946 26.58 801.862 26.364 801.862 26.1V9.18C801.862 8.916 801.946 8.7 802.114 8.532C802.282 8.364 802.486 8.28 802.726 8.28H806.326C806.59 8.28 806.806 8.364 806.974 8.532C807.142 8.7 807.226 8.916 807.226 9.18V26.1C807.226 26.364 807.142 26.58 806.974 26.748C806.806 26.916 806.59 27 806.326 27H802.726ZM802.618 5.4C802.378 5.4 802.174 5.316 802.006 5.148C801.838 4.98 801.754 4.764 801.754 4.5V1.62C801.754 1.356 801.838 1.14 802.006 0.971998C802.174 0.779999 802.378 0.684 802.618 0.684H806.398C806.662 0.684 806.878 0.779999 807.046 0.971998C807.238 1.14 807.334 1.356 807.334 1.62V4.5C807.334 4.764 807.238 4.98 807.046 5.148C806.878 5.316 806.662 5.4 806.398 5.4H802.618ZM817.249 27.36C815.977 27.36 814.837 27.12 813.829 26.64C812.821 26.136 812.017 25.464 811.417 24.624C810.817 23.784 810.517 22.848 810.517 21.816C810.517 20.112 811.201 18.768 812.569 17.784C813.961 16.8 815.785 16.128 818.041 15.768L822.757 15.084V14.436C822.757 13.5 822.541 12.78 822.109 12.276C821.677 11.772 820.921 11.52 819.841 11.52C819.049 11.52 818.413 11.676 817.933 11.988C817.453 12.3 817.081 12.708 816.817 13.212C816.625 13.524 816.349 13.68 815.989 13.68H812.569C812.305 13.68 812.101 13.608 811.957 13.464C811.813 13.296 811.753 13.104 811.777 12.888C811.777 12.48 811.933 12 812.245 11.448C812.557 10.896 813.037 10.356 813.685 9.828C814.333 9.276 815.161 8.82 816.169 8.46C817.177 8.1 818.413 7.92 819.877 7.92C821.389 7.92 822.685 8.1 823.765 8.46C824.845 8.82 825.709 9.324 826.357 9.972C827.005 10.62 827.485 11.376 827.797 12.24C828.109 13.08 828.265 13.992 828.265 14.976V26.1C828.265 26.364 828.181 26.58 828.013 26.748C827.845 26.916 827.629 27 827.365 27H823.837C823.597 27 823.393 26.916 823.225 26.748C823.057 26.58 822.973 26.364 822.973 26.1V24.768C822.661 25.224 822.241 25.656 821.713 26.064C821.185 26.448 820.549 26.76 819.805 27C819.085 27.24 818.233 27.36 817.249 27.36ZM818.689 23.616C819.481 23.616 820.189 23.448 820.813 23.112C821.437 22.776 821.929 22.26 822.289 21.564C822.649 20.868 822.829 19.992 822.829 18.936V18.324L819.481 18.864C818.185 19.08 817.237 19.404 816.637 19.836C816.037 20.268 815.737 20.796 815.737 21.42C815.737 21.876 815.869 22.272 816.133 22.608C816.421 22.944 816.793 23.196 817.249 23.364C817.705 23.532 818.185 23.616 818.689 23.616Z" fill="black"/>
</svg>
