<svg width="265" height="44" viewBox="0 0 265 44" fill="none" xmlns="http://www.w3.org/2000/svg">
<path d="M0.825703 15C0.679037 15 0.559037 14.9533 0.465703 14.86C0.37237 14.7667 0.325703 14.6467 0.325703 14.5V1.5C0.325703 1.35333 0.37237 1.23333 0.465703 1.14C0.559037 1.04667 0.679037 0.999999 0.825703 0.999999H2.6457C2.8457 0.999999 2.99237 1.04667 3.0857 1.14C3.17904 1.23333 3.23904 1.30667 3.2657 1.36L8.6057 9.7V1.5C8.6057 1.35333 8.65237 1.23333 8.7457 1.14C8.83904 1.04667 8.95237 0.999999 9.0857 0.999999H11.1257C11.2724 0.999999 11.3924 1.04667 11.4857 1.14C11.579 1.23333 11.6257 1.35333 11.6257 1.5V14.5C11.6257 14.6333 11.579 14.7533 11.4857 14.86C11.3924 14.9533 11.2724 15 11.1257 15H9.2857C9.0857 15 8.93904 14.9533 8.8457 14.86C8.7657 14.7533 8.7057 14.68 8.6657 14.64L3.3457 6.56V14.5C3.3457 14.6467 3.29904 14.7667 3.2057 14.86C3.11237 14.9533 2.99237 15 2.8457 15H0.825703ZM17.4235 15.2C16.7168 15.2 16.0835 15.0667 15.5235 14.8C14.9635 14.52 14.5168 14.1467 14.1835 13.68C13.8502 13.2133 13.6835 12.6933 13.6835 12.12C13.6835 11.1733 14.0635 10.4267 14.8235 9.88C15.5968 9.33333 16.6102 8.96 17.8635 8.76L20.4835 8.38V8.02C20.4835 7.5 20.3635 7.1 20.1235 6.82C19.8835 6.54 19.4635 6.4 18.8635 6.4C18.4235 6.4 18.0702 6.48667 17.8035 6.66C17.5368 6.83333 17.3302 7.06 17.1835 7.34C17.0768 7.51333 16.9235 7.6 16.7235 7.6H14.8235C14.6768 7.6 14.5635 7.56 14.4835 7.48C14.4035 7.38667 14.3702 7.28 14.3835 7.16C14.3835 6.93333 14.4702 6.66667 14.6435 6.36C14.8168 6.05333 15.0835 5.75333 15.4435 5.46C15.8035 5.15333 16.2635 4.9 16.8235 4.7C17.3835 4.5 18.0702 4.4 18.8835 4.4C19.7235 4.4 20.4435 4.5 21.0435 4.7C21.6435 4.9 22.1235 5.18 22.4835 5.54C22.8435 5.9 23.1102 6.32 23.2835 6.8C23.4568 7.26667 23.5435 7.77333 23.5435 8.32V14.5C23.5435 14.6467 23.4968 14.7667 23.4035 14.86C23.3102 14.9533 23.1902 15 23.0435 15H21.0835C20.9502 15 20.8368 14.9533 20.7435 14.86C20.6502 14.7667 20.6035 14.6467 20.6035 14.5V13.76C20.4302 14.0133 20.1968 14.2533 19.9035 14.48C19.6102 14.6933 19.2568 14.8667 18.8435 15C18.4435 15.1333 17.9702 15.2 17.4235 15.2ZM18.2235 13.12C18.6635 13.12 19.0568 13.0267 19.4035 12.84C19.7502 12.6533 20.0235 12.3667 20.2235 11.98C20.4235 11.5933 20.5235 11.1067 20.5235 10.52V10.18L18.6635 10.48C17.9435 10.6 17.4168 10.78 17.0835 11.02C16.7502 11.26 16.5835 11.5533 16.5835 11.9C16.5835 12.1533 16.6568 12.3733 16.8035 12.56C16.9635 12.7467 17.1702 12.8867 17.4235 12.98C17.6768 13.0733 17.9435 13.12 18.2235 13.12ZM30.887 15C30.0603 15 29.3536 14.8667 28.767 14.6C28.1803 14.32 27.7336 13.8933 27.427 13.32C27.1336 12.7467 26.987 12.0267 26.987 11.16V6.96H25.427C25.2803 6.96 25.1603 6.91333 25.067 6.82C24.9736 6.72667 24.927 6.60667 24.927 6.46V5.1C24.927 4.95333 24.9736 4.83333 25.067 4.74C25.1603 4.64667 25.2803 4.6 25.427 4.6H26.987V1.3C26.987 1.15333 27.0336 1.03333 27.127 0.94C27.2336 0.846666 27.3536 0.799999 27.487 0.799999H29.447C29.5936 0.799999 29.7136 0.846666 29.807 0.94C29.9003 1.03333 29.947 1.15333 29.947 1.3V4.6H32.447C32.5803 4.6 32.6936 4.64667 32.787 4.74C32.8803 4.83333 32.927 4.95333 32.927 5.1V6.46C32.927 6.60667 32.8803 6.72667 32.787 6.82C32.6936 6.91333 32.5803 6.96 32.447 6.96H29.947V10.92C29.947 11.4267 30.0336 11.8267 30.207 12.12C30.3936 12.4 30.7136 12.54 31.167 12.54H32.627C32.7603 12.54 32.8736 12.5867 32.967 12.68C33.0603 12.7733 33.107 12.8867 33.107 13.02V14.5C33.107 14.6467 33.0603 14.7667 32.967 14.86C32.8736 14.9533 32.7603 15 32.627 15H30.887ZM35.3318 15C35.1985 15 35.0851 14.9533 34.9918 14.86C34.8985 14.7667 34.8518 14.6467 34.8518 14.5V5.1C34.8518 4.95333 34.8985 4.83333 34.9918 4.74C35.0851 4.64667 35.1985 4.6 35.3318 4.6H37.3318C37.4785 4.6 37.5985 4.64667 37.6918 4.74C37.7851 4.83333 37.8318 4.95333 37.8318 5.1V14.5C37.8318 14.6467 37.7851 14.7667 37.6918 14.86C37.5985 14.9533 37.4785 15 37.3318 15H35.3318ZM35.2718 3C35.1385 3 35.0251 2.95333 34.9318 2.86C34.8385 2.76667 34.7918 2.64667 34.7918 2.5V0.899999C34.7918 0.753333 34.8385 0.633333 34.9318 0.539999C35.0251 0.433333 35.1385 0.38 35.2718 0.38H37.3718C37.5185 0.38 37.6385 0.433333 37.7318 0.539999C37.8385 0.633333 37.8918 0.753333 37.8918 0.899999V2.5C37.8918 2.64667 37.8385 2.76667 37.7318 2.86C37.6385 2.95333 37.5185 3 37.3718 3H35.2718ZM45.1782 15.2C44.0715 15.2 43.1449 15.02 42.3982 14.66C41.6515 14.2867 41.0782 13.76 40.6782 13.08C40.2915 12.4 40.0782 11.6067 40.0382 10.7C40.0249 10.4333 40.0182 10.1333 40.0182 9.8C40.0182 9.45333 40.0249 9.15333 40.0382 8.9C40.0782 7.98 40.3049 7.18667 40.7182 6.52C41.1315 5.84 41.7115 5.32 42.4582 4.96C43.2049 4.58667 44.1115 4.4 45.1782 4.4C46.2315 4.4 47.1315 4.58667 47.8782 4.96C48.6249 5.32 49.2049 5.84 49.6182 6.52C50.0315 7.18667 50.2582 7.98 50.2982 8.9C50.3249 9.15333 50.3382 9.45333 50.3382 9.8C50.3382 10.1333 50.3249 10.4333 50.2982 10.7C50.2582 11.6067 50.0382 12.4 49.6382 13.08C49.2515 13.76 48.6849 14.2867 47.9382 14.66C47.1915 15.02 46.2715 15.2 45.1782 15.2ZM45.1782 13C45.8315 13 46.3249 12.8 46.6582 12.4C46.9915 11.9867 47.1715 11.3867 47.1982 10.6C47.2115 10.4 47.2182 10.1333 47.2182 9.8C47.2182 9.46667 47.2115 9.2 47.1982 9C47.1715 8.22667 46.9915 7.63333 46.6582 7.22C46.3249 6.80667 45.8315 6.6 45.1782 6.6C44.5249 6.6 44.0249 6.80667 43.6782 7.22C43.3449 7.63333 43.1649 8.22667 43.1382 9C43.1249 9.2 43.1182 9.46667 43.1182 9.8C43.1182 10.1333 43.1249 10.4 43.1382 10.6C43.1649 11.3867 43.3449 11.9867 43.6782 12.4C44.0249 12.8 44.5249 13 45.1782 13ZM52.9099 15C52.7766 15 52.6633 14.9533 52.5699 14.86C52.4766 14.7667 52.4299 14.6467 52.4299 14.5V5.1C52.4299 4.95333 52.4766 4.83333 52.5699 4.74C52.6633 4.64667 52.7766 4.6 52.9099 4.6H54.8699C55.0166 4.6 55.1366 4.64667 55.2299 4.74C55.3233 4.83333 55.3699 4.95333 55.3699 5.1V5.88C55.7166 5.45333 56.1633 5.1 56.7099 4.82C57.2566 4.54 57.9233 4.4 58.7099 4.4C59.4966 4.4 60.1833 4.58 60.7699 4.94C61.3699 5.28667 61.8366 5.8 62.1699 6.48C62.5166 7.14667 62.6899 7.96 62.6899 8.92V14.5C62.6899 14.6467 62.6366 14.7667 62.5299 14.86C62.4366 14.9533 62.3233 15 62.1899 15H60.0699C59.9233 15 59.8033 14.9533 59.7099 14.86C59.6166 14.7667 59.5699 14.6467 59.5699 14.5V9.04C59.5699 8.33333 59.3966 7.78667 59.0499 7.4C58.7166 7 58.2233 6.8 57.5699 6.8C56.9433 6.8 56.4433 7 56.0699 7.4C55.6966 7.78667 55.5099 8.33333 55.5099 9.04V14.5C55.5099 14.6467 55.4633 14.7667 55.3699 14.86C55.2766 14.9533 55.1633 15 55.0299 15H52.9099ZM68.1462 15.2C67.4395 15.2 66.8062 15.0667 66.2462 14.8C65.6862 14.52 65.2395 14.1467 64.9062 13.68C64.5728 13.2133 64.4062 12.6933 64.4062 12.12C64.4062 11.1733 64.7862 10.4267 65.5462 9.88C66.3195 9.33333 67.3328 8.96 68.5862 8.76L71.2062 8.38V8.02C71.2062 7.5 71.0862 7.1 70.8462 6.82C70.6062 6.54 70.1862 6.4 69.5862 6.4C69.1462 6.4 68.7928 6.48667 68.5262 6.66C68.2595 6.83333 68.0528 7.06 67.9062 7.34C67.7995 7.51333 67.6462 7.6 67.4462 7.6H65.5462C65.3995 7.6 65.2862 7.56 65.2062 7.48C65.1262 7.38667 65.0928 7.28 65.1062 7.16C65.1062 6.93333 65.1928 6.66667 65.3662 6.36C65.5395 6.05333 65.8062 5.75333 66.1662 5.46C66.5262 5.15333 66.9862 4.9 67.5462 4.7C68.1062 4.5 68.7928 4.4 69.6062 4.4C70.4462 4.4 71.1662 4.5 71.7662 4.7C72.3662 4.9 72.8462 5.18 73.2062 5.54C73.5662 5.9 73.8328 6.32 74.0062 6.8C74.1795 7.26667 74.2662 7.77333 74.2662 8.32V14.5C74.2662 14.6467 74.2195 14.7667 74.1262 14.86C74.0328 14.9533 73.9128 15 73.7662 15H71.8062C71.6728 15 71.5595 14.9533 71.4662 14.86C71.3728 14.7667 71.3262 14.6467 71.3262 14.5V13.76C71.1528 14.0133 70.9195 14.2533 70.6262 14.48C70.3328 14.6933 69.9795 14.8667 69.5662 15C69.1662 15.1333 68.6928 15.2 68.1462 15.2ZM68.9462 13.12C69.3862 13.12 69.7795 13.0267 70.1262 12.84C70.4728 12.6533 70.7462 12.3667 70.9462 11.98C71.1462 11.5933 71.2462 11.1067 71.2462 10.52V10.18L69.3862 10.48C68.6662 10.6 68.1395 10.78 67.8062 11.02C67.4728 11.26 67.3062 11.5533 67.3062 11.9C67.3062 12.1533 67.3795 12.3733 67.5262 12.56C67.6862 12.7467 67.8928 12.8867 68.1462 12.98C68.3995 13.0733 68.6662 13.12 68.9462 13.12ZM77.1877 15C77.0411 15 76.9211 14.9533 76.8277 14.86C76.7344 14.7667 76.6877 14.6467 76.6877 14.5V1.3C76.6877 1.15333 76.7344 1.03333 76.8277 0.94C76.9211 0.846666 77.0411 0.799999 77.1877 0.799999H79.1877C79.3211 0.799999 79.4344 0.846666 79.5277 0.94C79.6211 1.03333 79.6677 1.15333 79.6677 1.3V14.5C79.6677 14.6467 79.6211 14.7667 79.5277 14.86C79.4344 14.9533 79.3211 15 79.1877 15H77.1877ZM89.9409 15C89.7942 15 89.6742 14.9533 89.5809 14.86C89.4875 14.7667 89.4409 14.6467 89.4409 14.5V3.78H85.8009C85.6675 3.78 85.5542 3.73333 85.4609 3.64C85.3675 3.54667 85.3209 3.43333 85.3209 3.3V1.5C85.3209 1.35333 85.3675 1.23333 85.4609 1.14C85.5542 1.04667 85.6675 0.999999 85.8009 0.999999H96.2809C96.4275 0.999999 96.5475 1.04667 96.6409 1.14C96.7342 1.23333 96.7809 1.35333 96.7809 1.5V3.3C96.7809 3.43333 96.7342 3.54667 96.6409 3.64C96.5475 3.73333 96.4275 3.78 96.2809 3.78H92.6609V14.5C92.6609 14.6467 92.6142 14.7667 92.5209 14.86C92.4275 14.9533 92.3075 15 92.1609 15H89.9409ZM101.328 15.2C99.7944 15.2 98.5744 14.7733 97.6677 13.92C96.7744 13.0667 96.3011 11.8267 96.2477 10.2C96.2477 10.0933 96.2477 9.95333 96.2477 9.78C96.2477 9.59333 96.2477 9.44667 96.2477 9.34C96.3011 8.31333 96.5344 7.43333 96.9477 6.7C97.3611 5.95333 97.9411 5.38667 98.6877 5C99.4344 4.6 100.308 4.4 101.308 4.4C102.428 4.4 103.361 4.63333 104.108 5.1C104.868 5.55333 105.434 6.18 105.808 6.98C106.194 7.76667 106.388 8.67333 106.388 9.7V10.16C106.388 10.2933 106.334 10.4067 106.228 10.5C106.134 10.5933 106.021 10.64 105.888 10.64H99.3477C99.3477 10.6533 99.3477 10.68 99.3477 10.72C99.3477 10.7467 99.3477 10.7733 99.3477 10.8C99.3611 11.2267 99.4411 11.62 99.5877 11.98C99.7477 12.3267 99.9677 12.6067 100.248 12.82C100.541 13.0333 100.888 13.14 101.288 13.14C101.621 13.14 101.894 13.0933 102.108 13C102.321 12.9067 102.494 12.7933 102.628 12.66C102.774 12.5267 102.881 12.4133 102.948 12.32C103.068 12.1867 103.161 12.1067 103.228 12.08C103.308 12.04 103.428 12.02 103.588 12.02H105.668C105.801 12.02 105.908 12.06 105.988 12.14C106.081 12.2067 106.121 12.3067 106.108 12.44C106.094 12.6533 105.981 12.92 105.768 13.24C105.568 13.5467 105.268 13.8533 104.868 14.16C104.468 14.4533 103.968 14.7 103.368 14.9C102.781 15.1 102.101 15.2 101.328 15.2ZM99.3477 8.82H103.268V8.78C103.268 8.3 103.188 7.88667 103.028 7.54C102.881 7.18 102.661 6.9 102.368 6.7C102.074 6.5 101.721 6.4 101.308 6.4C100.894 6.4 100.541 6.5 100.248 6.7C99.9544 6.9 99.7277 7.18 99.5677 7.54C99.4211 7.88667 99.3477 8.3 99.3477 8.78V8.82ZM108.887 15C108.74 15 108.62 14.9533 108.527 14.86C108.434 14.7667 108.387 14.6467 108.387 14.5V1.3C108.387 1.15333 108.434 1.03333 108.527 0.94C108.62 0.846666 108.74 0.799999 108.887 0.799999H110.887C111.02 0.799999 111.134 0.846666 111.227 0.94C111.32 1.03333 111.367 1.15333 111.367 1.3V14.5C111.367 14.6467 111.32 14.7667 111.227 14.86C111.134 14.9533 111.02 15 110.887 15H108.887ZM118.535 15.2C117.001 15.2 115.781 14.7733 114.875 13.92C113.981 13.0667 113.508 11.8267 113.455 10.2C113.455 10.0933 113.455 9.95333 113.455 9.78C113.455 9.59333 113.455 9.44667 113.455 9.34C113.508 8.31333 113.741 7.43333 114.155 6.7C114.568 5.95333 115.148 5.38667 115.895 5C116.641 4.6 117.515 4.4 118.515 4.4C119.635 4.4 120.568 4.63333 121.315 5.1C122.075 5.55333 122.641 6.18 123.015 6.98C123.401 7.76667 123.595 8.67333 123.595 9.7V10.16C123.595 10.2933 123.541 10.4067 123.435 10.5C123.341 10.5933 123.228 10.64 123.095 10.64H116.555C116.555 10.6533 116.555 10.68 116.555 10.72C116.555 10.7467 116.555 10.7733 116.555 10.8C116.568 11.2267 116.648 11.62 116.795 11.98C116.955 12.3267 117.175 12.6067 117.455 12.82C117.748 13.0333 118.095 13.14 118.495 13.14C118.828 13.14 119.101 13.0933 119.315 13C119.528 12.9067 119.701 12.7933 119.835 12.66C119.981 12.5267 120.088 12.4133 120.155 12.32C120.275 12.1867 120.368 12.1067 120.435 12.08C120.515 12.04 120.635 12.02 120.795 12.02H122.875C123.008 12.02 123.115 12.06 123.195 12.14C123.288 12.2067 123.328 12.3067 123.315 12.44C123.301 12.6533 123.188 12.92 122.975 13.24C122.775 13.5467 122.475 13.8533 122.075 14.16C121.675 14.4533 121.175 14.7 120.575 14.9C119.988 15.1 119.308 15.2 118.535 15.2ZM116.555 8.82H120.475V8.78C120.475 8.3 120.395 7.88667 120.235 7.54C120.088 7.18 119.868 6.9 119.575 6.7C119.281 6.5 118.928 6.4 118.515 6.4C118.101 6.4 117.748 6.5 117.455 6.7C117.161 6.9 116.935 7.18 116.775 7.54C116.628 7.88667 116.555 8.3 116.555 8.78V8.82ZM130.728 15C130.595 15 130.475 14.9533 130.368 14.86C130.275 14.7667 130.228 14.6467 130.228 14.5V1.5C130.228 1.35333 130.275 1.23333 130.368 1.14C130.475 1.04667 130.595 0.999999 130.728 0.999999H132.588C132.788 0.999999 132.935 1.05333 133.028 1.16C133.135 1.26667 133.208 1.34667 133.248 1.4L136.928 8.18L140.648 1.4C140.675 1.34667 140.735 1.26667 140.828 1.16C140.935 1.05333 141.088 0.999999 141.288 0.999999H143.148C143.295 0.999999 143.415 1.04667 143.508 1.14C143.601 1.23333 143.648 1.35333 143.648 1.5V14.5C143.648 14.6467 143.601 14.7667 143.508 14.86C143.415 14.9533 143.295 15 143.148 15H141.108C140.975 15 140.861 14.9533 140.768 14.86C140.675 14.7667 140.628 14.6467 140.628 14.5V6.42L138.088 11.18C138.021 11.3 137.935 11.4067 137.828 11.5C137.721 11.5933 137.581 11.64 137.408 11.64H136.468C136.295 11.64 136.155 11.5933 136.048 11.5C135.941 11.4067 135.855 11.3 135.788 11.18L133.248 6.42V14.5C133.248 14.6467 133.201 14.7667 133.108 14.86C133.015 14.9533 132.901 15 132.768 15H130.728ZM151.035 15.2C149.501 15.2 148.281 14.7733 147.375 13.92C146.481 13.0667 146.008 11.8267 145.955 10.2C145.955 10.0933 145.955 9.95333 145.955 9.78C145.955 9.59333 145.955 9.44667 145.955 9.34C146.008 8.31333 146.241 7.43333 146.655 6.7C147.068 5.95333 147.648 5.38667 148.395 5C149.141 4.6 150.015 4.4 151.015 4.4C152.135 4.4 153.068 4.63333 153.815 5.1C154.575 5.55333 155.141 6.18 155.515 6.98C155.901 7.76667 156.095 8.67333 156.095 9.7V10.16C156.095 10.2933 156.041 10.4067 155.935 10.5C155.841 10.5933 155.728 10.64 155.595 10.64H149.055C149.055 10.6533 149.055 10.68 149.055 10.72C149.055 10.7467 149.055 10.7733 149.055 10.8C149.068 11.2267 149.148 11.62 149.295 11.98C149.455 12.3267 149.675 12.6067 149.955 12.82C150.248 13.0333 150.595 13.14 150.995 13.14C151.328 13.14 151.601 13.0933 151.815 13C152.028 12.9067 152.201 12.7933 152.335 12.66C152.481 12.5267 152.588 12.4133 152.655 12.32C152.775 12.1867 152.868 12.1067 152.935 12.08C153.015 12.04 153.135 12.02 153.295 12.02H155.375C155.508 12.02 155.615 12.06 155.695 12.14C155.788 12.2067 155.828 12.3067 155.815 12.44C155.801 12.6533 155.688 12.92 155.475 13.24C155.275 13.5467 154.975 13.8533 154.575 14.16C154.175 14.4533 153.675 14.7 153.075 14.9C152.488 15.1 151.808 15.2 151.035 15.2ZM149.055 8.82H152.975V8.78C152.975 8.3 152.895 7.88667 152.735 7.54C152.588 7.18 152.368 6.9 152.075 6.7C151.781 6.5 151.428 6.4 151.015 6.4C150.601 6.4 150.248 6.5 149.955 6.7C149.661 6.9 149.435 7.18 149.275 7.54C149.128 7.88667 149.055 8.3 149.055 8.78V8.82ZM158.574 15C158.441 15 158.327 14.9533 158.234 14.86C158.141 14.7667 158.094 14.6467 158.094 14.5V5.1C158.094 4.95333 158.141 4.83333 158.234 4.74C158.327 4.64667 158.441 4.6 158.574 4.6H160.534C160.681 4.6 160.801 4.64667 160.894 4.74C160.987 4.83333 161.034 4.95333 161.034 5.1V5.88C161.381 5.45333 161.827 5.1 162.374 4.82C162.921 4.54 163.587 4.4 164.374 4.4C165.161 4.4 165.847 4.58 166.434 4.94C167.034 5.28667 167.501 5.8 167.834 6.48C168.181 7.14667 168.354 7.96 168.354 8.92V14.5C168.354 14.6467 168.301 14.7667 168.194 14.86C168.101 14.9533 167.987 15 167.854 15H165.734C165.587 15 165.467 14.9533 165.374 14.86C165.281 14.7667 165.234 14.6467 165.234 14.5V9.04C165.234 8.33333 165.061 7.78667 164.714 7.4C164.381 7 163.887 6.8 163.234 6.8C162.607 6.8 162.107 7 161.734 7.4C161.361 7.78667 161.174 8.33333 161.174 9.04V14.5C161.174 14.6467 161.127 14.7667 161.034 14.86C160.941 14.9533 160.827 15 160.694 15H158.574ZM175.633 15C174.806 15 174.1 14.8667 173.513 14.6C172.926 14.32 172.48 13.8933 172.173 13.32C171.88 12.7467 171.733 12.0267 171.733 11.16V6.96H170.173C170.026 6.96 169.906 6.91333 169.813 6.82C169.72 6.72667 169.673 6.60667 169.673 6.46V5.1C169.673 4.95333 169.72 4.83333 169.813 4.74C169.906 4.64667 170.026 4.6 170.173 4.6H171.733V1.3C171.733 1.15333 171.78 1.03333 171.873 0.94C171.98 0.846666 172.1 0.799999 172.233 0.799999H174.193C174.34 0.799999 174.46 0.846666 174.553 0.94C174.646 1.03333 174.693 1.15333 174.693 1.3V4.6H177.193C177.326 4.6 177.44 4.64667 177.533 4.74C177.626 4.83333 177.673 4.95333 177.673 5.1V6.46C177.673 6.60667 177.626 6.72667 177.533 6.82C177.44 6.91333 177.326 6.96 177.193 6.96H174.693V10.92C174.693 11.4267 174.78 11.8267 174.953 12.12C175.14 12.4 175.46 12.54 175.913 12.54H177.373C177.506 12.54 177.62 12.5867 177.713 12.68C177.806 12.7733 177.853 12.8867 177.853 13.02V14.5C177.853 14.6467 177.806 14.7667 177.713 14.86C177.62 14.9533 177.506 15 177.373 15H175.633ZM182.658 15.2C181.951 15.2 181.318 15.0667 180.758 14.8C180.198 14.52 179.751 14.1467 179.418 13.68C179.085 13.2133 178.918 12.6933 178.918 12.12C178.918 11.1733 179.298 10.4267 180.058 9.88C180.831 9.33333 181.845 8.96 183.098 8.76L185.718 8.38V8.02C185.718 7.5 185.598 7.1 185.358 6.82C185.118 6.54 184.698 6.4 184.098 6.4C183.658 6.4 183.305 6.48667 183.038 6.66C182.771 6.83333 182.565 7.06 182.418 7.34C182.311 7.51333 182.158 7.6 181.958 7.6H180.058C179.911 7.6 179.798 7.56 179.718 7.48C179.638 7.38667 179.605 7.28 179.618 7.16C179.618 6.93333 179.705 6.66667 179.878 6.36C180.051 6.05333 180.318 5.75333 180.678 5.46C181.038 5.15333 181.498 4.9 182.058 4.7C182.618 4.5 183.305 4.4 184.118 4.4C184.958 4.4 185.678 4.5 186.278 4.7C186.878 4.9 187.358 5.18 187.718 5.54C188.078 5.9 188.345 6.32 188.518 6.8C188.691 7.26667 188.778 7.77333 188.778 8.32V14.5C188.778 14.6467 188.731 14.7667 188.638 14.86C188.545 14.9533 188.425 15 188.278 15H186.318C186.185 15 186.071 14.9533 185.978 14.86C185.885 14.7667 185.838 14.6467 185.838 14.5V13.76C185.665 14.0133 185.431 14.2533 185.138 14.48C184.845 14.6933 184.491 14.8667 184.078 15C183.678 15.1333 183.205 15.2 182.658 15.2ZM183.458 13.12C183.898 13.12 184.291 13.0267 184.638 12.84C184.985 12.6533 185.258 12.3667 185.458 11.98C185.658 11.5933 185.758 11.1067 185.758 10.52V10.18L183.898 10.48C183.178 10.6 182.651 10.78 182.318 11.02C181.985 11.26 181.818 11.5533 181.818 11.9C181.818 12.1533 181.891 12.3733 182.038 12.56C182.198 12.7467 182.405 12.8867 182.658 12.98C182.911 13.0733 183.178 13.12 183.458 13.12ZM191.699 15C191.553 15 191.433 14.9533 191.339 14.86C191.246 14.7667 191.199 14.6467 191.199 14.5V1.3C191.199 1.15333 191.246 1.03333 191.339 0.94C191.433 0.846666 191.553 0.799999 191.699 0.799999H193.699C193.833 0.799999 193.946 0.846666 194.039 0.94C194.133 1.03333 194.179 1.15333 194.179 1.3V14.5C194.179 14.6467 194.133 14.7667 194.039 14.86C193.946 14.9533 193.833 15 193.699 15H191.699ZM201.841 15C201.695 15 201.575 14.9533 201.481 14.86C201.388 14.7667 201.341 14.6467 201.341 14.5V1.5C201.341 1.35333 201.388 1.23333 201.481 1.14C201.575 1.04667 201.695 0.999999 201.841 0.999999H204.021C204.168 0.999999 204.288 1.04667 204.381 1.14C204.475 1.23333 204.521 1.35333 204.521 1.5V6.5H209.941V1.5C209.941 1.35333 209.988 1.23333 210.081 1.14C210.175 1.04667 210.295 0.999999 210.441 0.999999H212.621C212.768 0.999999 212.888 1.04667 212.981 1.14C213.075 1.23333 213.121 1.35333 213.121 1.5V14.5C213.121 14.6467 213.075 14.7667 212.981 14.86C212.888 14.9533 212.768 15 212.621 15H210.441C210.295 15 210.175 14.9533 210.081 14.86C209.988 14.7667 209.941 14.6467 209.941 14.5V9.34H204.521V14.5C204.521 14.6467 204.475 14.7667 204.381 14.86C204.288 14.9533 204.168 15 204.021 15H201.841ZM220.507 15.2C218.974 15.2 217.754 14.7733 216.847 13.92C215.954 13.0667 215.481 11.8267 215.427 10.2C215.427 10.0933 215.427 9.95333 215.427 9.78C215.427 9.59333 215.427 9.44667 215.427 9.34C215.481 8.31333 215.714 7.43333 216.127 6.7C216.541 5.95333 217.121 5.38667 217.867 5C218.614 4.6 219.487 4.4 220.487 4.4C221.607 4.4 222.541 4.63333 223.287 5.1C224.047 5.55333 224.614 6.18 224.987 6.98C225.374 7.76667 225.567 8.67333 225.567 9.7V10.16C225.567 10.2933 225.514 10.4067 225.407 10.5C225.314 10.5933 225.201 10.64 225.067 10.64H218.527C218.527 10.6533 218.527 10.68 218.527 10.72C218.527 10.7467 218.527 10.7733 218.527 10.8C218.541 11.2267 218.621 11.62 218.767 11.98C218.927 12.3267 219.147 12.6067 219.427 12.82C219.721 13.0333 220.067 13.14 220.467 13.14C220.801 13.14 221.074 13.0933 221.287 13C221.501 12.9067 221.674 12.7933 221.807 12.66C221.954 12.5267 222.061 12.4133 222.127 12.32C222.247 12.1867 222.341 12.1067 222.407 12.08C222.487 12.04 222.607 12.02 222.767 12.02H224.847C224.981 12.02 225.087 12.06 225.167 12.14C225.261 12.2067 225.301 12.3067 225.287 12.44C225.274 12.6533 225.161 12.92 224.947 13.24C224.747 13.5467 224.447 13.8533 224.047 14.16C223.647 14.4533 223.147 14.7 222.547 14.9C221.961 15.1 221.281 15.2 220.507 15.2ZM218.527 8.82H222.447V8.78C222.447 8.3 222.367 7.88667 222.207 7.54C222.061 7.18 221.841 6.9 221.547 6.7C221.254 6.5 220.901 6.4 220.487 6.4C220.074 6.4 219.721 6.5 219.427 6.7C219.134 6.9 218.907 7.18 218.747 7.54C218.601 7.88667 218.527 8.3 218.527 8.78V8.82ZM230.627 15.2C229.92 15.2 229.287 15.0667 228.727 14.8C228.167 14.52 227.72 14.1467 227.387 13.68C227.053 13.2133 226.887 12.6933 226.887 12.12C226.887 11.1733 227.267 10.4267 228.027 9.88C228.8 9.33333 229.813 8.96 231.067 8.76L233.687 8.38V8.02C233.687 7.5 233.567 7.1 233.327 6.82C233.087 6.54 232.667 6.4 232.067 6.4C231.627 6.4 231.273 6.48667 231.007 6.66C230.74 6.83333 230.533 7.06 230.387 7.34C230.28 7.51333 230.127 7.6 229.927 7.6H228.027C227.88 7.6 227.767 7.56 227.687 7.48C227.607 7.38667 227.573 7.28 227.587 7.16C227.587 6.93333 227.673 6.66667 227.847 6.36C228.02 6.05333 228.287 5.75333 228.647 5.46C229.007 5.15333 229.467 4.9 230.027 4.7C230.587 4.5 231.273 4.4 232.087 4.4C232.927 4.4 233.647 4.5 234.247 4.7C234.847 4.9 235.327 5.18 235.687 5.54C236.047 5.9 236.313 6.32 236.487 6.8C236.66 7.26667 236.747 7.77333 236.747 8.32V14.5C236.747 14.6467 236.7 14.7667 236.607 14.86C236.513 14.9533 236.393 15 236.247 15H234.287C234.153 15 234.04 14.9533 233.947 14.86C233.853 14.7667 233.807 14.6467 233.807 14.5V13.76C233.633 14.0133 233.4 14.2533 233.107 14.48C232.813 14.6933 232.46 14.8667 232.047 15C231.647 15.1333 231.173 15.2 230.627 15.2ZM231.427 13.12C231.867 13.12 232.26 13.0267 232.607 12.84C232.953 12.6533 233.227 12.3667 233.427 11.98C233.627 11.5933 233.727 11.1067 233.727 10.52V10.18L231.867 10.48C231.147 10.6 230.62 10.78 230.287 11.02C229.953 11.26 229.787 11.5533 229.787 11.9C229.787 12.1533 229.86 12.3733 230.007 12.56C230.167 12.7467 230.373 12.8867 230.627 12.98C230.88 13.0733 231.147 13.12 231.427 13.12ZM239.668 15C239.522 15 239.402 14.9533 239.308 14.86C239.215 14.7667 239.168 14.6467 239.168 14.5V1.3C239.168 1.15333 239.215 1.03333 239.308 0.94C239.402 0.846666 239.522 0.799999 239.668 0.799999H241.668C241.802 0.799999 241.915 0.846666 242.008 0.94C242.102 1.03333 242.148 1.15333 242.148 1.3V14.5C242.148 14.6467 242.102 14.7667 242.008 14.86C241.915 14.9533 241.802 15 241.668 15H239.668ZM249.676 15C248.849 15 248.143 14.8667 247.556 14.6C246.969 14.32 246.523 13.8933 246.216 13.32C245.923 12.7467 245.776 12.0267 245.776 11.16V6.96H244.216C244.069 6.96 243.949 6.91333 243.856 6.82C243.763 6.72667 243.716 6.60667 243.716 6.46V5.1C243.716 4.95333 243.763 4.83333 243.856 4.74C243.949 4.64667 244.069 4.6 244.216 4.6H245.776V1.3C245.776 1.15333 245.823 1.03333 245.916 0.94C246.023 0.846666 246.143 0.799999 246.276 0.799999H248.236C248.383 0.799999 248.503 0.846666 248.596 0.94C248.689 1.03333 248.736 1.15333 248.736 1.3V4.6H251.236C251.369 4.6 251.483 4.64667 251.576 4.74C251.669 4.83333 251.716 4.95333 251.716 5.1V6.46C251.716 6.60667 251.669 6.72667 251.576 6.82C251.483 6.91333 251.369 6.96 251.236 6.96H248.736V10.92C248.736 11.4267 248.823 11.8267 248.996 12.12C249.183 12.4 249.503 12.54 249.956 12.54H251.416C251.549 12.54 251.663 12.5867 251.756 12.68C251.849 12.7733 251.896 12.8867 251.896 13.02V14.5C251.896 14.6467 251.849 14.7667 251.756 14.86C251.663 14.9533 251.549 15 251.416 15H249.676ZM254.141 15C253.994 15 253.874 14.9533 253.781 14.86C253.688 14.7667 253.641 14.6467 253.641 14.5V1.3C253.641 1.15333 253.688 1.03333 253.781 0.94C253.874 0.846666 253.994 0.799999 254.141 0.799999H256.301C256.434 0.799999 256.548 0.846666 256.641 0.94C256.734 1.03333 256.781 1.15333 256.781 1.3V5.8C257.141 5.37333 257.581 5.03333 258.101 4.78C258.621 4.52667 259.248 4.4 259.981 4.4C260.768 4.4 261.461 4.58 262.061 4.94C262.674 5.28667 263.154 5.8 263.501 6.48C263.848 7.14667 264.021 7.96 264.021 8.92V14.5C264.021 14.6467 263.974 14.7667 263.881 14.86C263.788 14.9533 263.668 15 263.521 15H261.341C261.208 15 261.094 14.9533 261.001 14.86C260.908 14.7667 260.861 14.6467 260.861 14.5V9.04C260.861 8.33333 260.688 7.78667 260.341 7.4C259.994 7 259.501 6.8 258.861 6.8C258.234 6.8 257.728 7 257.341 7.4C256.968 7.78667 256.781 8.33333 256.781 9.04V14.5C256.781 14.6467 256.734 14.7667 256.641 14.86C256.548 14.9533 256.434 15 256.301 15H254.141ZM38.0327 39C37.8861 39 37.7661 38.9533 37.6727 38.86C37.5794 38.7667 37.5327 38.6467 37.5327 38.5V25.5C37.5327 25.3533 37.5794 25.2333 37.6727 25.14C37.7661 25.0467 37.8861 25 38.0327 25H43.4927C44.5727 25 45.5061 25.1667 46.2927 25.5C47.0927 25.8333 47.7127 26.34 48.1527 27.02C48.6061 27.6867 48.8327 28.52 48.8327 29.52C48.8327 30.5333 48.6061 31.3733 48.1527 32.04C47.7127 32.6933 47.0927 33.18 46.2927 33.5C45.5061 33.82 44.5727 33.98 43.4927 33.98H40.8127V38.5C40.8127 38.6467 40.7661 38.7667 40.6727 38.86C40.5794 38.9533 40.4594 39 40.3127 39H38.0327ZM40.7527 31.5H43.3927C44.0727 31.5 44.5994 31.3333 44.9727 31C45.3594 30.6667 45.5527 30.1667 45.5527 29.5C45.5527 28.9133 45.3794 28.4333 45.0327 28.06C44.6994 27.6867 44.1527 27.5 43.3927 27.5H40.7527V31.5ZM51.1326 39C50.9992 39 50.8859 38.9533 50.7926 38.86C50.6992 38.7667 50.6526 38.6467 50.6526 38.5V29.1C50.6526 28.9667 50.6992 28.8533 50.7926 28.76C50.8859 28.6533 50.9992 28.6 51.1326 28.6H53.0926C53.2259 28.6 53.3392 28.6533 53.4326 28.76C53.5392 28.8533 53.5926 28.9667 53.5926 29.1V29.9C53.9259 29.4867 54.3326 29.1667 54.8126 28.94C55.3059 28.7133 55.8726 28.6 56.5126 28.6H57.3726C57.5059 28.6 57.6192 28.6467 57.7126 28.74C57.8059 28.8333 57.8526 28.9533 57.8526 29.1V30.82C57.8526 30.9667 57.8059 31.0867 57.7126 31.18C57.6192 31.2733 57.5059 31.32 57.3726 31.32H55.6126C55.0259 31.32 54.5659 31.4867 54.2326 31.82C53.8992 32.14 53.7326 32.6 53.7326 33.2V38.5C53.7326 38.6467 53.6859 38.7667 53.5926 38.86C53.4992 38.9533 53.3792 39 53.2326 39H51.1326ZM63.9868 39.2C62.8801 39.2 61.9535 39.02 61.2068 38.66C60.4601 38.2867 59.8868 37.76 59.4868 37.08C59.1001 36.4 58.8868 35.6067 58.8468 34.7C58.8335 34.4333 58.8268 34.1333 58.8268 33.8C58.8268 33.4533 58.8335 33.1533 58.8468 32.9C58.8868 31.98 59.1135 31.1867 59.5268 30.52C59.9401 29.84 60.5201 29.32 61.2668 28.96C62.0135 28.5867 62.9201 28.4 63.9868 28.4C65.0401 28.4 65.9401 28.5867 66.6868 28.96C67.4335 29.32 68.0135 29.84 68.4268 30.52C68.8401 31.1867 69.0668 31.98 69.1068 32.9C69.1335 33.1533 69.1468 33.4533 69.1468 33.8C69.1468 34.1333 69.1335 34.4333 69.1068 34.7C69.0668 35.6067 68.8468 36.4 68.4468 37.08C68.0601 37.76 67.4935 38.2867 66.7468 38.66C66.0001 39.02 65.0801 39.2 63.9868 39.2ZM63.9868 37C64.6401 37 65.1335 36.8 65.4668 36.4C65.8001 35.9867 65.9801 35.3867 66.0068 34.6C66.0201 34.4 66.0268 34.1333 66.0268 33.8C66.0268 33.4667 66.0201 33.2 66.0068 33C65.9801 32.2267 65.8001 31.6333 65.4668 31.22C65.1335 30.8067 64.6401 30.6 63.9868 30.6C63.3335 30.6 62.8335 30.8067 62.4868 31.22C62.1535 31.6333 61.9735 32.2267 61.9468 33C61.9335 33.2 61.9268 33.4667 61.9268 33.8C61.9268 34.1333 61.9335 34.4 61.9468 34.6C61.9735 35.3867 62.1535 35.9867 62.4868 36.4C62.8335 36.8 63.3335 37 63.9868 37ZM76.1185 43.4C75.1318 43.4 74.3118 43.2667 73.6585 43C73.0052 42.7467 72.4852 42.4333 72.0985 42.06C71.7252 41.7 71.4585 41.34 71.2985 40.98C71.1385 40.62 71.0518 40.34 71.0385 40.14C71.0252 39.9933 71.0718 39.8733 71.1785 39.78C71.2852 39.6867 71.4052 39.64 71.5385 39.64H73.6785C73.7985 39.64 73.8985 39.6667 73.9785 39.72C74.0718 39.7867 74.1452 39.8933 74.1985 40.04C74.2652 40.2 74.3585 40.3667 74.4785 40.54C74.5985 40.7267 74.7785 40.88 75.0185 41C75.2718 41.12 75.6052 41.18 76.0185 41.18C76.4852 41.18 76.8718 41.1133 77.1785 40.98C77.4852 40.8467 77.7118 40.62 77.8585 40.3C78.0185 39.98 78.0985 39.5467 78.0985 39V37.66C77.7785 38.0067 77.3718 38.2933 76.8785 38.52C76.3985 38.7467 75.8052 38.86 75.0985 38.86C74.4052 38.86 73.7918 38.7533 73.2585 38.54C72.7385 38.3133 72.3052 38 71.9585 37.6C71.6118 37.1867 71.3452 36.6933 71.1585 36.12C70.9718 35.5467 70.8652 34.9 70.8385 34.18C70.8252 33.82 70.8252 33.4667 70.8385 33.12C70.8652 32.4267 70.9718 31.7933 71.1585 31.22C71.3452 30.6467 71.6118 30.1533 71.9585 29.74C72.3052 29.3133 72.7385 28.9867 73.2585 28.76C73.7918 28.52 74.4052 28.4 75.0985 28.4C75.8318 28.4 76.4585 28.54 76.9785 28.82C77.4985 29.1 77.9252 29.4467 78.2585 29.86V29.1C78.2585 28.9667 78.3052 28.8533 78.3985 28.76C78.4918 28.6533 78.6052 28.6 78.7385 28.6H80.6985C80.8318 28.6 80.9452 28.6533 81.0385 28.76C81.1452 28.8533 81.1985 28.9667 81.1985 29.1L81.2185 38.72C81.2185 39.72 81.0252 40.5667 80.6385 41.26C80.2518 41.9533 79.6785 42.48 78.9185 42.84C78.1718 43.2133 77.2385 43.4 76.1185 43.4ZM76.0185 36.52C76.4985 36.52 76.8852 36.4133 77.1785 36.2C77.4852 35.9733 77.7118 35.6933 77.8585 35.36C78.0052 35.0133 78.0852 34.6533 78.0985 34.28C78.1118 34.1333 78.1185 33.9267 78.1185 33.66C78.1185 33.38 78.1118 33.1667 78.0985 33.02C78.0852 32.6467 78.0052 32.2933 77.8585 31.96C77.7118 31.6133 77.4852 31.3333 77.1785 31.12C76.8852 30.9067 76.4985 30.8 76.0185 30.8C75.5118 30.8 75.1118 30.9133 74.8185 31.14C74.5252 31.3533 74.3118 31.64 74.1785 32C74.0452 32.36 73.9652 32.7533 73.9385 33.18C73.9252 33.5 73.9252 33.8133 73.9385 34.12C73.9652 34.56 74.0452 34.96 74.1785 35.32C74.3118 35.68 74.5252 35.9733 74.8185 36.2C75.1118 36.4133 75.5118 36.52 76.0185 36.52ZM84.2185 39C84.0852 39 83.9718 38.9533 83.8785 38.86C83.7852 38.7667 83.7385 38.6467 83.7385 38.5V29.1C83.7385 28.9667 83.7852 28.8533 83.8785 28.76C83.9718 28.6533 84.0852 28.6 84.2185 28.6H86.1785C86.3118 28.6 86.4252 28.6533 86.5185 28.76C86.6252 28.8533 86.6785 28.9667 86.6785 29.1V29.9C87.0118 29.4867 87.4185 29.1667 87.8985 28.94C88.3918 28.7133 88.9585 28.6 89.5985 28.6H90.4585C90.5918 28.6 90.7052 28.6467 90.7985 28.74C90.8918 28.8333 90.9385 28.9533 90.9385 29.1V30.82C90.9385 30.9667 90.8918 31.0867 90.7985 31.18C90.7052 31.2733 90.5918 31.32 90.4585 31.32H88.6985C88.1118 31.32 87.6518 31.4867 87.3185 31.82C86.9852 32.14 86.8185 32.6 86.8185 33.2V38.5C86.8185 38.6467 86.7718 38.7667 86.6785 38.86C86.5852 38.9533 86.4652 39 86.3185 39H84.2185ZM95.3141 39.2C94.6075 39.2 93.9741 39.0667 93.4141 38.8C92.8541 38.52 92.4075 38.1467 92.0741 37.68C91.7408 37.2133 91.5741 36.6933 91.5741 36.12C91.5741 35.1733 91.9541 34.4267 92.7141 33.88C93.4875 33.3333 94.5008 32.96 95.7541 32.76L98.3741 32.38V32.02C98.3741 31.5 98.2541 31.1 98.0141 30.82C97.7741 30.54 97.3541 30.4 96.7541 30.4C96.3141 30.4 95.9608 30.4867 95.6941 30.66C95.4275 30.8333 95.2208 31.06 95.0741 31.34C94.9675 31.5133 94.8141 31.6 94.6141 31.6H92.7141C92.5675 31.6 92.4541 31.56 92.3741 31.48C92.2941 31.3867 92.2608 31.28 92.2741 31.16C92.2741 30.9333 92.3608 30.6667 92.5341 30.36C92.7075 30.0533 92.9741 29.7533 93.3341 29.46C93.6941 29.1533 94.1541 28.9 94.7141 28.7C95.2741 28.5 95.9608 28.4 96.7741 28.4C97.6141 28.4 98.3341 28.5 98.9341 28.7C99.5341 28.9 100.014 29.18 100.374 29.54C100.734 29.9 101.001 30.32 101.174 30.8C101.347 31.2667 101.434 31.7733 101.434 32.32V38.5C101.434 38.6467 101.387 38.7667 101.294 38.86C101.201 38.9533 101.081 39 100.934 39H98.9741C98.8408 39 98.7275 38.9533 98.6341 38.86C98.5408 38.7667 98.4941 38.6467 98.4941 38.5V37.76C98.3208 38.0133 98.0875 38.2533 97.7941 38.48C97.5008 38.6933 97.1475 38.8667 96.7341 39C96.3341 39.1333 95.8608 39.2 95.3141 39.2ZM96.1141 37.12C96.5541 37.12 96.9475 37.0267 97.2941 36.84C97.6408 36.6533 97.9141 36.3667 98.1141 35.98C98.3141 35.5933 98.4141 35.1067 98.4141 34.52V34.18L96.5541 34.48C95.8341 34.6 95.3075 34.78 94.9741 35.02C94.6408 35.26 94.4741 35.5533 94.4741 35.9C94.4741 36.1533 94.5475 36.3733 94.6941 36.56C94.8541 36.7467 95.0608 36.8867 95.3141 36.98C95.5675 37.0733 95.8341 37.12 96.1141 37.12ZM104.336 39C104.202 39 104.089 38.9533 103.996 38.86C103.902 38.7667 103.856 38.6467 103.856 38.5V29.1C103.856 28.9533 103.902 28.8333 103.996 28.74C104.089 28.6467 104.202 28.6 104.336 28.6H106.196C106.329 28.6 106.442 28.6467 106.536 28.74C106.642 28.8333 106.696 28.9533 106.696 29.1V29.78C106.962 29.4067 107.329 29.0867 107.796 28.82C108.276 28.5533 108.842 28.4133 109.496 28.4C111.042 28.3733 112.102 28.96 112.676 30.16C112.982 29.64 113.422 29.22 113.996 28.9C114.582 28.5667 115.222 28.4 115.916 28.4C116.609 28.4 117.236 28.56 117.796 28.88C118.356 29.1867 118.796 29.6667 119.116 30.32C119.449 30.96 119.616 31.7867 119.616 32.8V38.5C119.616 38.6467 119.569 38.7667 119.476 38.86C119.382 38.9533 119.269 39 119.136 39H117.156C117.022 39 116.909 38.9533 116.816 38.86C116.722 38.7667 116.676 38.6467 116.676 38.5V32.96C116.676 32.4133 116.596 31.9867 116.436 31.68C116.276 31.36 116.062 31.1333 115.796 31C115.542 30.8667 115.256 30.8 114.936 30.8C114.656 30.8 114.382 30.8667 114.116 31C113.862 31.1333 113.649 31.36 113.476 31.68C113.316 31.9867 113.236 32.4133 113.236 32.96V38.5C113.236 38.6467 113.189 38.7667 113.096 38.86C113.002 38.9533 112.882 39 112.736 39H110.776C110.629 39 110.509 38.9533 110.416 38.86C110.322 38.7667 110.276 38.6467 110.276 38.5V32.96C110.276 32.4133 110.196 31.9867 110.036 31.68C109.876 31.36 109.662 31.1333 109.396 31C109.142 30.8667 108.862 30.8 108.556 30.8C108.276 30.8 108.002 30.8733 107.736 31.02C107.469 31.1533 107.249 31.3733 107.076 31.68C106.916 31.9867 106.836 32.4067 106.836 32.94V38.5C106.836 38.6467 106.789 38.7667 106.696 38.86C106.602 38.9533 106.489 39 106.356 39H104.336ZM122.519 39C122.386 39 122.273 38.9533 122.179 38.86C122.086 38.7667 122.039 38.6467 122.039 38.5V29.1C122.039 28.9533 122.086 28.8333 122.179 28.74C122.273 28.6467 122.386 28.6 122.519 28.6H124.379C124.513 28.6 124.626 28.6467 124.719 28.74C124.826 28.8333 124.879 28.9533 124.879 29.1V29.78C125.146 29.4067 125.513 29.0867 125.979 28.82C126.459 28.5533 127.026 28.4133 127.679 28.4C129.226 28.3733 130.286 28.96 130.859 30.16C131.166 29.64 131.606 29.22 132.179 28.9C132.766 28.5667 133.406 28.4 134.099 28.4C134.793 28.4 135.419 28.56 135.979 28.88C136.539 29.1867 136.979 29.6667 137.299 30.32C137.633 30.96 137.799 31.7867 137.799 32.8V38.5C137.799 38.6467 137.753 38.7667 137.659 38.86C137.566 38.9533 137.453 39 137.319 39H135.339C135.206 39 135.093 38.9533 134.999 38.86C134.906 38.7667 134.859 38.6467 134.859 38.5V32.96C134.859 32.4133 134.779 31.9867 134.619 31.68C134.459 31.36 134.246 31.1333 133.979 31C133.726 30.8667 133.439 30.8 133.119 30.8C132.839 30.8 132.566 30.8667 132.299 31C132.046 31.1333 131.833 31.36 131.659 31.68C131.499 31.9867 131.419 32.4133 131.419 32.96V38.5C131.419 38.6467 131.373 38.7667 131.279 38.86C131.186 38.9533 131.066 39 130.919 39H128.959C128.813 39 128.693 38.9533 128.599 38.86C128.506 38.7667 128.459 38.6467 128.459 38.5V32.96C128.459 32.4133 128.379 31.9867 128.219 31.68C128.059 31.36 127.846 31.1333 127.579 31C127.326 30.8667 127.046 30.8 126.739 30.8C126.459 30.8 126.186 30.8733 125.919 31.02C125.653 31.1533 125.433 31.3733 125.259 31.68C125.099 31.9867 125.019 32.4067 125.019 32.94V38.5C125.019 38.6467 124.973 38.7667 124.879 38.86C124.786 38.9533 124.673 39 124.539 39H122.519ZM144.863 39.2C143.33 39.2 142.11 38.7733 141.203 37.92C140.31 37.0667 139.836 35.8267 139.783 34.2C139.783 34.0933 139.783 33.9533 139.783 33.78C139.783 33.5933 139.783 33.4467 139.783 33.34C139.836 32.3133 140.07 31.4333 140.483 30.7C140.896 29.9533 141.476 29.3867 142.223 29C142.97 28.6 143.843 28.4 144.843 28.4C145.963 28.4 146.896 28.6333 147.643 29.1C148.403 29.5533 148.97 30.18 149.343 30.98C149.73 31.7667 149.923 32.6733 149.923 33.7V34.16C149.923 34.2933 149.87 34.4067 149.763 34.5C149.67 34.5933 149.556 34.64 149.423 34.64H142.883C142.883 34.6533 142.883 34.68 142.883 34.72C142.883 34.7467 142.883 34.7733 142.883 34.8C142.896 35.2267 142.976 35.62 143.123 35.98C143.283 36.3267 143.503 36.6067 143.783 36.82C144.076 37.0333 144.423 37.14 144.823 37.14C145.156 37.14 145.43 37.0933 145.643 37C145.856 36.9067 146.03 36.7933 146.163 36.66C146.31 36.5267 146.416 36.4133 146.483 36.32C146.603 36.1867 146.696 36.1067 146.763 36.08C146.843 36.04 146.963 36.02 147.123 36.02H149.203C149.336 36.02 149.443 36.06 149.523 36.14C149.616 36.2067 149.656 36.3067 149.643 36.44C149.63 36.6533 149.516 36.92 149.303 37.24C149.103 37.5467 148.803 37.8533 148.403 38.16C148.003 38.4533 147.503 38.7 146.903 38.9C146.316 39.1 145.636 39.2 144.863 39.2ZM142.883 32.82H146.803V32.78C146.803 32.3 146.723 31.8867 146.563 31.54C146.416 31.18 146.196 30.9 145.903 30.7C145.61 30.5 145.256 30.4 144.843 30.4C144.43 30.4 144.076 30.5 143.783 30.7C143.49 30.9 143.263 31.18 143.103 31.54C142.956 31.8867 142.883 32.3 142.883 32.78V32.82ZM161.096 39.2C159.99 39.2 159.063 39.02 158.316 38.66C157.57 38.2867 156.996 37.76 156.596 37.08C156.21 36.4 155.996 35.6067 155.956 34.7C155.943 34.4333 155.936 34.1333 155.936 33.8C155.936 33.4533 155.943 33.1533 155.956 32.9C155.996 31.98 156.223 31.1867 156.636 30.52C157.05 29.84 157.63 29.32 158.376 28.96C159.123 28.5867 160.03 28.4 161.096 28.4C162.15 28.4 163.05 28.5867 163.796 28.96C164.543 29.32 165.123 29.84 165.536 30.52C165.95 31.1867 166.176 31.98 166.216 32.9C166.243 33.1533 166.256 33.4533 166.256 33.8C166.256 34.1333 166.243 34.4333 166.216 34.7C166.176 35.6067 165.956 36.4 165.556 37.08C165.17 37.76 164.603 38.2867 163.856 38.66C163.11 39.02 162.19 39.2 161.096 39.2ZM161.096 37C161.75 37 162.243 36.8 162.576 36.4C162.91 35.9867 163.09 35.3867 163.116 34.6C163.13 34.4 163.136 34.1333 163.136 33.8C163.136 33.4667 163.13 33.2 163.116 33C163.09 32.2267 162.91 31.6333 162.576 31.22C162.243 30.8067 161.75 30.6 161.096 30.6C160.443 30.6 159.943 30.8067 159.596 31.22C159.263 31.6333 159.083 32.2267 159.056 33C159.043 33.2 159.036 33.4667 159.036 33.8C159.036 34.1333 159.043 34.4 159.056 34.6C159.083 35.3867 159.263 35.9867 159.596 36.4C159.943 36.8 160.443 37 161.096 37ZM169.89 39C169.744 39 169.624 38.9533 169.53 38.86C169.437 38.7667 169.39 38.6467 169.39 38.5V30.96H167.83C167.684 30.96 167.564 30.9133 167.47 30.82C167.377 30.7267 167.33 30.6067 167.33 30.46V29.1C167.33 28.9533 167.377 28.8333 167.47 28.74C167.564 28.6467 167.684 28.6 167.83 28.6H169.39V27.88C169.39 27.0267 169.55 26.3267 169.87 25.78C170.19 25.2333 170.657 24.8333 171.27 24.58C171.884 24.3267 172.637 24.2 173.53 24.2H174.99C175.137 24.2 175.257 24.2467 175.35 24.34C175.444 24.4333 175.49 24.5533 175.49 24.7V26.06C175.49 26.2067 175.444 26.3267 175.35 26.42C175.257 26.5133 175.137 26.56 174.99 26.56H173.65C173.157 26.56 172.81 26.68 172.61 26.92C172.424 27.16 172.33 27.5133 172.33 27.98V28.6H174.79C174.937 28.6 175.057 28.6467 175.15 28.74C175.244 28.8333 175.29 28.9533 175.29 29.1V30.46C175.29 30.6067 175.244 30.7267 175.15 30.82C175.057 30.9133 174.937 30.96 174.79 30.96H172.33V38.5C172.33 38.6467 172.284 38.7667 172.19 38.86C172.097 38.9533 171.984 39 171.85 39H169.89ZM181.529 39C181.382 39 181.262 38.9533 181.169 38.86C181.075 38.7667 181.029 38.6467 181.029 38.5V25.5C181.029 25.3533 181.075 25.2333 181.169 25.14C181.262 25.0467 181.382 25 181.529 25H183.789C183.935 25 184.055 25.0467 184.149 25.14C184.242 25.2333 184.289 25.3533 184.289 25.5V38.5C184.289 38.6467 184.242 38.7667 184.149 38.86C184.055 38.9533 183.935 39 183.789 39H181.529ZM187.5 39C187.366 39 187.253 38.9533 187.16 38.86C187.066 38.7667 187.02 38.6467 187.02 38.5V29.1C187.02 28.9533 187.066 28.8333 187.16 28.74C187.253 28.6467 187.366 28.6 187.5 28.6H189.46C189.606 28.6 189.726 28.6467 189.82 28.74C189.913 28.8333 189.96 28.9533 189.96 29.1V29.88C190.306 29.4533 190.753 29.1 191.3 28.82C191.846 28.54 192.513 28.4 193.3 28.4C194.086 28.4 194.773 28.58 195.36 28.94C195.96 29.2867 196.426 29.8 196.76 30.48C197.106 31.1467 197.28 31.96 197.28 32.92V38.5C197.28 38.6467 197.226 38.7667 197.12 38.86C197.026 38.9533 196.913 39 196.78 39H194.66C194.513 39 194.393 38.9533 194.3 38.86C194.206 38.7667 194.16 38.6467 194.16 38.5V33.04C194.16 32.3333 193.986 31.7867 193.64 31.4C193.306 31 192.813 30.8 192.16 30.8C191.533 30.8 191.033 31 190.66 31.4C190.286 31.7867 190.1 32.3333 190.1 33.04V38.5C190.1 38.6467 190.053 38.7667 189.96 38.86C189.866 38.9533 189.753 39 189.62 39H187.5ZM203.536 39.2C202.869 39.2 202.276 39.0933 201.756 38.88C201.236 38.6533 200.796 38.3333 200.436 37.92C200.076 37.4933 199.803 36.9933 199.616 36.42C199.429 35.8333 199.316 35.1867 199.276 34.48C199.263 34.2267 199.256 34 199.256 33.8C199.256 33.5867 199.263 33.36 199.276 33.12C199.303 32.4267 199.409 31.7933 199.596 31.22C199.796 30.6467 200.069 30.1533 200.416 29.74C200.776 29.3133 201.216 28.9867 201.736 28.76C202.269 28.52 202.869 28.4 203.536 28.4C204.229 28.4 204.823 28.52 205.316 28.76C205.809 28.9867 206.216 29.2867 206.536 29.66V25.3C206.536 25.1533 206.583 25.0333 206.676 24.94C206.769 24.8467 206.889 24.8 207.036 24.8H209.096C209.229 24.8 209.343 24.8467 209.436 24.94C209.529 25.0333 209.576 25.1533 209.576 25.3V38.5C209.576 38.6467 209.529 38.7667 209.436 38.86C209.343 38.9533 209.229 39 209.096 39H207.176C207.043 39 206.929 38.9533 206.836 38.86C206.743 38.7667 206.696 38.6467 206.696 38.5V37.82C206.363 38.22 205.943 38.5533 205.436 38.82C204.929 39.0733 204.296 39.2 203.536 39.2ZM204.456 36.8C204.949 36.8 205.343 36.6867 205.636 36.46C205.943 36.2333 206.163 35.9467 206.296 35.6C206.443 35.2533 206.523 34.88 206.536 34.48C206.563 34.2267 206.576 33.9733 206.576 33.72C206.576 33.4667 206.563 33.22 206.536 32.98C206.523 32.6067 206.443 32.26 206.296 31.94C206.149 31.6067 205.923 31.3333 205.616 31.12C205.323 30.9067 204.936 30.8 204.456 30.8C203.949 30.8 203.549 30.9133 203.256 31.14C202.963 31.3533 202.749 31.64 202.616 32C202.496 32.36 202.423 32.7533 202.396 33.18C202.356 33.5933 202.356 34.0067 202.396 34.42C202.423 34.8467 202.496 35.24 202.616 35.6C202.749 35.96 202.963 36.2533 203.256 36.48C203.549 36.6933 203.949 36.8 204.456 36.8ZM212.597 39C212.464 39 212.351 38.9533 212.257 38.86C212.164 38.7667 212.117 38.6467 212.117 38.5V29.1C212.117 28.9533 212.164 28.8333 212.257 28.74C212.351 28.6467 212.464 28.6 212.597 28.6H214.597C214.744 28.6 214.864 28.6467 214.957 28.74C215.051 28.8333 215.097 28.9533 215.097 29.1V38.5C215.097 38.6467 215.051 38.7667 214.957 38.86C214.864 38.9533 214.744 39 214.597 39H212.597ZM212.537 27C212.404 27 212.291 26.9533 212.197 26.86C212.104 26.7667 212.057 26.6467 212.057 26.5V24.9C212.057 24.7533 212.104 24.6333 212.197 24.54C212.291 24.4333 212.404 24.38 212.537 24.38H214.637C214.784 24.38 214.904 24.4333 214.997 24.54C215.104 24.6333 215.157 24.7533 215.157 24.9V26.5C215.157 26.6467 215.104 26.7667 214.997 26.86C214.904 26.9533 214.784 27 214.637 27H212.537ZM220.666 39.2C219.959 39.2 219.326 39.0667 218.766 38.8C218.206 38.52 217.759 38.1467 217.426 37.68C217.092 37.2133 216.926 36.6933 216.926 36.12C216.926 35.1733 217.306 34.4267 218.066 33.88C218.839 33.3333 219.852 32.96 221.106 32.76L223.726 32.38V32.02C223.726 31.5 223.606 31.1 223.366 30.82C223.126 30.54 222.706 30.4 222.106 30.4C221.666 30.4 221.312 30.4867 221.046 30.66C220.779 30.8333 220.572 31.06 220.426 31.34C220.319 31.5133 220.166 31.6 219.966 31.6H218.066C217.919 31.6 217.806 31.56 217.726 31.48C217.646 31.3867 217.612 31.28 217.626 31.16C217.626 30.9333 217.712 30.6667 217.886 30.36C218.059 30.0533 218.326 29.7533 218.686 29.46C219.046 29.1533 219.506 28.9 220.066 28.7C220.626 28.5 221.312 28.4 222.126 28.4C222.966 28.4 223.686 28.5 224.286 28.7C224.886 28.9 225.366 29.18 225.726 29.54C226.086 29.9 226.352 30.32 226.526 30.8C226.699 31.2667 226.786 31.7733 226.786 32.32V38.5C226.786 38.6467 226.739 38.7667 226.646 38.86C226.552 38.9533 226.432 39 226.286 39H224.326C224.192 39 224.079 38.9533 223.986 38.86C223.892 38.7667 223.846 38.6467 223.846 38.5V37.76C223.672 38.0133 223.439 38.2533 223.146 38.48C222.852 38.6933 222.499 38.8667 222.086 39C221.686 39.1333 221.212 39.2 220.666 39.2ZM221.466 37.12C221.906 37.12 222.299 37.0267 222.646 36.84C222.992 36.6533 223.266 36.3667 223.466 35.98C223.666 35.5933 223.766 35.1067 223.766 34.52V34.18L221.906 34.48C221.186 34.6 220.659 34.78 220.326 35.02C219.992 35.26 219.826 35.5533 219.826 35.9C219.826 36.1533 219.899 36.3733 220.046 36.56C220.206 36.7467 220.412 36.8867 220.666 36.98C220.919 37.0733 221.186 37.12 221.466 37.12Z" fill="black"/>
</svg>
