<svg width="50" height="40" viewBox="0 0 50 40" fill="none" xmlns="http://www.w3.org/2000/svg">
<path fill-rule="evenodd" clip-rule="evenodd" d="M24.8915 5.81335C35.4039 5.81335 43.9289 14.0628 43.9289 24.2358C43.9289 28.472 42.4497 32.3737 39.9653 35.4859H9.81771C7.33332 32.3737 5.85413 28.472 5.85413 24.2358C5.85413 14.0628 14.3791 5.81335 24.8915 5.81335Z" fill="#E30016"/>
<path fill-rule="evenodd" clip-rule="evenodd" d="M18.0469 13.8807C19.061 13.8807 19.8831 14.9074 19.8831 16.1734C19.8831 17.4394 19.061 18.466 18.0469 18.466C17.0334 18.466 16.2114 17.4394 16.2114 16.1734C16.2114 14.9074 17.0334 13.8807 18.0469 13.8807ZM12.6563 23.5729V23.5733C12.979 23.868 13.4655 23.8158 13.737 23.4581L16.1756 20.2539V19.0842C16.157 19.0638 16.1377 19.0434 16.1173 19.0248V19.0245C15.7946 18.7304 15.3081 18.7819 15.0362 19.1396L12.5651 22.3871C12.2932 22.7451 12.3344 23.2781 12.6563 23.5729ZM23.3068 23.4602C22.9842 23.7543 22.4977 23.7028 22.2254 23.345L19.755 20.0976C19.6838 20.0043 19.6344 19.8991 19.6051 19.7893V19.316C19.6459 19.1629 19.7264 19.0205 19.8458 18.9114C20.1682 18.617 20.6547 18.6689 20.9269 19.0266L23.398 22.2737C23.6699 22.6317 23.6288 23.1655 23.3068 23.4602ZM15.7674 21.3858L16.5237 20.4171V19.1872H19.2574V20.1724L20.1177 21.3858V25.5329C20.1177 25.9275 19.824 26.2494 19.4649 26.2494H16.4199C16.0611 26.2494 15.7674 25.9275 15.7674 25.5329V21.3858ZM16.5877 26.9437C16.9748 26.9437 17.2917 27.2918 17.2917 27.7171V32.8451C17.2917 33.2708 16.9748 33.6185 16.5877 33.6185C16.2006 33.6185 15.8841 33.2708 15.8841 32.8451V27.7171C15.8841 27.2918 16.2006 26.9437 16.5877 26.9437ZM19.3329 26.9437C19.7199 26.9437 20.0369 27.2918 20.0369 27.7171V32.8451C20.0369 33.2708 19.7199 33.6185 19.3329 33.6185C18.9458 33.6185 18.6292 33.2708 18.6292 32.8451V27.7171C18.6292 27.2918 18.9458 26.9437 19.3329 26.9437ZM32.9003 15.2344C33.8407 15.2344 34.6034 16.1866 34.6034 17.361C34.6034 18.5354 33.8407 19.4881 32.9003 19.4881C31.9595 19.4881 31.1968 18.5354 31.1968 17.361C31.1968 16.1866 31.9595 15.2344 32.9003 15.2344ZM28.8913 24.3581C29.1828 24.5892 29.5967 24.513 29.8103 24.19L31.9899 20.8921C32.2038 20.5684 32.1394 20.1148 31.8478 19.8844C31.5556 19.6533 31.1421 19.7288 30.9281 20.0522L28.7485 23.3504C28.535 23.6741 28.599 24.127 28.8913 24.3581ZM37.1622 24.2694C36.8732 24.5059 36.4464 24.4479 36.2139 24.1403L33.8411 21.0027C33.6082 20.695 33.6544 20.2504 33.9438 20.0139V20.0132C34.2324 19.7775 34.6588 19.8354 34.8917 20.1431L37.2649 23.2807C37.497 23.5879 37.4512 24.0329 37.1622 24.2694ZM33.453 20.7748L33.5821 21.1851L35.9778 28.7903C36.1037 29.1878 35.6644 29.5551 35.282 29.5551H30.5676C30.1848 29.5551 29.7462 29.1878 29.8714 28.7903L32.2124 21.3597L32.397 20.7748C32.754 19.6405 33.0652 19.5449 33.453 20.7748ZM31.5585 30.1025C31.933 30.1025 32.2392 30.4387 32.2392 30.8497V33.0365C32.2392 33.4475 31.933 33.7838 31.5585 33.7838C31.1843 33.7838 30.8777 33.4475 30.8777 33.0365V30.8497C30.8777 30.4387 31.1843 30.1025 31.5585 30.1025ZM34.2303 30.1025C34.6045 30.1025 34.9107 30.4387 34.9107 30.8497V33.0365C34.9107 33.4475 34.6045 33.7838 34.2303 33.7838C33.8554 33.7838 33.5495 33.4475 33.5495 33.0365V30.8497C33.5495 30.4387 33.8554 30.1025 34.2303 30.1025ZM26.0806 26.2465L26.155 26.4834L27.8478 30.863C27.9358 31.0916 27.699 31.303 27.4951 31.303H24.13C23.8863 31.303 23.5694 31.0833 23.657 30.863L25.3666 26.5832L25.4728 26.2465C25.6785 25.5937 25.8578 25.5386 26.0806 26.2465ZM25.891 23.2356C26.3908 23.2356 26.7954 23.755 26.7954 24.396C26.7954 25.0378 26.3908 25.5576 25.891 25.5576C25.3916 25.5576 24.9867 25.0378 24.9867 24.396C24.9867 23.755 25.3916 23.2356 25.891 23.2356ZM25.1445 31.5748C25.362 31.5748 25.5397 31.7702 25.5397 32.0088V33.278C25.5397 33.5162 25.362 33.7119 25.1445 33.7119C24.927 33.7119 24.7495 33.5162 24.7495 33.278V32.0088C24.7495 31.7702 24.927 31.5748 25.1445 31.5748ZM26.5321 31.5748C26.7496 31.5748 26.9274 31.7702 26.9274 32.0088V33.278C26.9274 33.5162 26.7496 33.7119 26.5321 33.7119C26.3146 33.7119 26.1375 33.5162 26.1375 33.278V32.0088C26.1375 31.7702 26.3146 31.5748 26.5321 31.5748ZM29.1316 24.6636C29.0261 25.8291 28.0617 26.7921 26.7717 27.1015L26.3604 26.0809C27.298 25.9317 28.0302 25.3555 28.1958 24.6303L29.1316 24.6636ZM24.805 27.0539C23.5297 26.679 22.6146 25.6545 22.6146 24.4504C22.6146 24.3062 22.6275 24.1649 22.6526 24.0269L23.544 24.0862C23.5315 24.1628 23.5247 24.2401 23.5247 24.3191C23.5247 25.1161 24.2033 25.7933 25.1427 26.0294L24.805 27.0539Z" fill="white"/>
<path fill-rule="evenodd" clip-rule="evenodd" d="M25.1899 12.5851C25.3906 12.6023 25.5827 12.6495 25.7615 12.7221L26.1922 11.9977L25.8989 12.7836C26.0377 12.8527 26.1668 12.9378 26.2842 13.0358L27.4904 12.0578L26.4791 13.2251C26.6018 13.3621 26.7049 13.5159 26.7821 13.6826L27.6078 13.439L26.839 13.8185C26.8948 13.9659 26.9306 14.1222 26.9456 14.2839L28.946 14.4542L26.9456 14.6245C26.9306 14.7897 26.8927 14.9471 26.8365 15.096L27.6042 15.4787L26.7793 15.2319C26.7024 15.3964 26.6004 15.5488 26.4791 15.6837L27.4904 16.8513L26.2842 15.8729C26.1296 16.0024 25.9536 16.109 25.7623 16.1859L25.9916 16.9919L25.6199 16.2374C25.4832 16.2814 25.3394 16.3104 25.1899 16.3237L25.0139 18.2597L24.8379 16.3237C24.6369 16.3061 24.4448 16.2589 24.2663 16.1863L23.8356 16.9107L24.1292 16.1248C23.9901 16.0554 23.8613 15.9709 23.7436 15.8729L22.5377 16.8513L23.549 15.6837C23.4263 15.547 23.3237 15.3925 23.2457 15.2258L22.42 15.4694L23.1884 15.0899C23.1337 14.9425 23.0976 14.7865 23.0822 14.6245L21.0822 14.4542L23.0822 14.2839C23.0976 14.1194 23.1351 13.9616 23.1909 13.8121L22.4236 13.4304L23.2482 13.6769C23.3258 13.5123 23.4278 13.3596 23.549 13.2251L22.5377 12.0578L23.7436 13.0358C23.8982 12.906 24.0738 12.7994 24.2659 12.7221L24.0362 11.9165L24.4076 12.6709C24.5449 12.6269 24.6887 12.598 24.8379 12.5851L25.0139 10.648L25.1899 12.5851Z" fill="#FFEC00"/>
<path fill-rule="evenodd" clip-rule="evenodd" d="M10.9317 37.8104V37.1192H10.1948L9.97803 36.7647H11.6872L11.8901 37.1192H11.3646V37.7989C11.3646 37.9284 11.337 38.0382 11.2819 38.1273C11.239 38.1949 11.1589 38.2647 11.0423 38.3355L11.6779 38.9941L11.5105 39.1461L11.0884 38.7086C10.9042 38.5144 10.7597 38.3494 10.6552 38.2135C10.5203 38.0407 10.4527 37.9202 10.4527 37.8526C10.4527 37.7535 10.505 37.7045 10.6094 37.7045C10.6584 37.7045 10.726 37.7213 10.8119 37.7549L10.9317 37.8104ZM12.5164 37.1192V39.1178L12.0832 38.8131V37.1192H11.7792L11.5492 36.7647H12.8573L13.0598 37.1192H12.5164ZM14.1795 38.3638C14.1516 38.4038 14.0947 38.4467 14.0089 38.4922C13.9198 38.5319 13.8293 38.5519 13.737 38.5519C13.5989 38.5519 13.4469 38.4782 13.2813 38.3316C13.0999 38.1695 13.0094 38.0053 13.0094 37.8404V37.1192H12.7515L12.5211 36.7647H14.2714L14.4743 37.1239L13.424 37.1192L14.1795 37.7503L14.2807 37.8647V38.2632L14.1795 38.3638ZM14.1266 37.9638L13.4422 37.3925V37.9263C13.4422 38.006 13.4522 38.0769 13.4723 38.1398C13.4923 38.2028 13.5284 38.2343 13.5814 38.2343C13.649 38.2343 13.7234 38.2135 13.8053 38.1727C13.8869 38.1312 13.9935 38.0622 14.1266 37.9638ZM15.1328 37.1192H13.9491L13.7187 36.7647H15.8655L16.0679 37.1192H15.566V37.6322C15.566 37.6905 15.56 37.7313 15.5474 37.7549C15.5353 37.7782 15.5138 37.7943 15.483 37.8036C15.1207 37.8586 14.8674 37.9338 14.7229 38.03C14.6002 38.1065 14.5387 38.2081 14.5387 38.3348C14.5387 38.3959 14.5741 38.4528 14.6445 38.5058C14.7154 38.558 14.7873 38.5841 14.861 38.5841C15.0209 38.5841 15.219 38.5304 15.4555 38.4231C15.5507 38.3831 15.6565 38.3294 15.7732 38.2618L15.9667 38.6027C15.9574 38.6549 15.8647 38.7215 15.688 38.803C15.5113 38.8842 15.3478 38.925 15.1972 38.925C14.9393 38.925 14.7068 38.8377 14.4997 38.6617C14.2922 38.4868 14.1884 38.294 14.1884 38.0844C14.1884 37.9985 14.2099 37.9187 14.2532 37.844C14.3115 37.7427 14.402 37.6676 14.5247 37.6183C14.5955 37.5907 14.7021 37.5578 14.8449 37.521C14.988 37.4841 15.0838 37.4501 15.1328 37.4194V37.1192ZM14.7322 39.5975L15.3496 39.1371C15.3861 39.1092 15.4169 39.0957 15.4415 39.0957C15.4476 39.0985 15.4544 39.1017 15.4623 39.1046C15.4698 39.1078 15.4798 39.1139 15.4923 39.1232L15.5521 39.2062L16.0268 39.8787L15.8583 40L15.5013 39.4949L14.9708 39.8909L14.7322 39.5975ZM17.3303 37.1192H16.759V39.1407L16.3262 38.8499V37.1192H16.0268L15.7964 36.7647H16.441C16.441 36.5644 16.3913 36.3998 16.2915 36.2718C16.1917 36.1426 16.0744 36.0783 15.9391 36.0783C15.8408 36.0783 15.761 36.1065 15.6995 36.1627C15.6383 36.2188 15.6075 36.2925 15.6075 36.3837L15.6165 36.5297L15.3679 36.5572C15.3217 36.5111 15.2841 36.4539 15.2552 36.3845C15.2258 36.3154 15.2112 36.255 15.2112 36.2027C15.2112 36.0736 15.2681 35.9616 15.3818 35.8665C15.4952 35.7713 15.6319 35.7234 15.7918 35.7234C16.0096 35.7234 16.1938 35.8096 16.3444 35.9824C16.495 36.1552 16.5916 36.4159 16.6346 36.7647H17.1L17.3303 37.1192ZM16.759 36.7647H19.3064L19.5092 37.1192H19.1315V39.1454L18.6983 38.8413V38.4231L18.5051 38.5151C18.3513 38.5795 18.2286 38.612 18.1363 38.612C17.9707 38.612 17.8186 38.5533 17.6805 38.436C17.6004 38.3684 17.5053 38.2593 17.3947 38.1083L17.3028 37.9187C17.2627 37.8204 17.2352 37.7381 17.2198 37.6737C17.2198 37.6551 17.3217 37.6129 17.526 37.5471C17.7303 37.4802 17.8322 37.4133 17.8322 37.3457C17.8322 37.2999 17.8093 37.2391 17.7632 37.1654L17.731 37.1192H16.9848L16.759 36.7647ZM18.2193 37.6884C18.2193 37.7313 18.1241 37.7864 17.9338 37.8526C17.7435 37.9187 17.648 37.9878 17.648 38.0583C17.648 38.1198 17.6913 38.1695 17.7771 38.2064C17.8415 38.2278 17.9016 38.2389 17.9567 38.2389C18.0733 38.2389 18.2332 38.1881 18.4357 38.0858L18.6983 37.9331V37.1192H17.9936L18.1041 37.3135C18.181 37.4741 18.2193 37.5993 18.2193 37.6884ZM22.2594 38.2378C22.2501 38.2411 22.2233 38.2504 22.1786 38.2657C22.1342 38.2811 22.0766 38.2979 22.0058 38.3169L21.7618 38.3494C21.691 38.3494 21.6112 38.3201 21.5221 38.2618L21.3333 38.1191C21.2871 38.1988 21.2059 38.2833 21.0893 38.3723L21.0017 38.4278L21.6373 39.1218L21.4438 39.2881C21.315 39.1425 21.192 39.0005 21.0753 38.8599C20.9587 38.7193 20.855 38.588 20.7645 38.4661C20.674 38.3441 20.6031 38.2343 20.5527 38.1373C20.5019 38.04 20.4765 37.9638 20.4765 37.9077C20.4765 37.8619 20.4905 37.8211 20.518 37.785C20.5456 37.7495 20.5824 37.7288 20.6285 37.7227C20.6747 37.7227 20.7377 37.7488 20.8174 37.8011L20.928 37.884V37.1192H20.2647L20.0344 36.7647H22.2455L22.4483 37.1192H21.3612V37.8887L21.4624 37.9255C21.496 37.9348 21.5361 37.9391 21.5822 37.9391C21.6896 37.9391 21.8033 37.9223 21.9232 37.8887C21.9815 37.8701 22.0383 37.8518 22.0934 37.8332C22.1489 37.815 22.204 37.7935 22.2594 37.7689V38.2378ZM24.1525 37.1192V39.1454L23.7196 38.8413V38.4689C23.6399 38.5398 23.5461 38.6013 23.4385 38.6531C23.3097 38.7179 23.1899 38.7501 23.0793 38.7501C22.904 38.7501 22.7191 38.6685 22.5241 38.5058C22.3292 38.343 22.2315 38.1634 22.2315 37.967C22.2315 37.8104 22.3045 37.673 22.4504 37.5546C22.5964 37.4365 22.7631 37.3771 22.9502 37.3771C23.0546 37.3771 23.1469 37.3897 23.2267 37.414C23.3065 37.4387 23.3941 37.4877 23.4893 37.5617C23.5751 37.6229 23.652 37.7012 23.7196 37.7964V37.1192H22.0015L21.7711 36.7647H24.4752L24.6776 37.1192H24.1525ZM23.7196 38.0454V37.9853L23.5998 37.9116L23.4478 37.8379L23.2542 37.7735C23.2174 37.7642 23.1591 37.7596 23.0793 37.7596C22.9534 37.7596 22.8443 37.8057 22.7524 37.898C22.6661 37.9899 22.6232 38.0958 22.6232 38.2157C22.6232 38.2772 22.6508 38.3294 22.7062 38.3723C22.7613 38.4092 22.8289 38.4278 22.9087 38.4278C22.9795 38.4278 23.1147 38.377 23.3143 38.2754C23.3666 38.2478 23.431 38.2128 23.5075 38.1695C23.5844 38.1266 23.6553 38.0851 23.7196 38.0454ZM25.2121 37.1192V39.1178L24.7792 38.8131V37.1192H24.4752L24.2448 36.7647H25.553L25.7558 37.1192H25.2121ZM27.4278 38.2378C27.4185 38.2411 27.3917 38.2504 27.3473 38.2657C27.3026 38.2811 27.245 38.2979 27.1745 38.3169L26.9302 38.3494C26.8597 38.3494 26.78 38.3201 26.6909 38.2618L26.502 38.1191C26.4559 38.1988 26.3743 38.2833 26.2577 38.3723L26.1704 38.4278L26.8061 39.1218L26.6126 39.2881C26.4834 39.1425 26.3607 39.0005 26.2441 38.8599C26.1271 38.7193 26.0237 38.588 25.9329 38.4661C25.8424 38.3441 25.7719 38.2343 25.7211 38.1373C25.6703 38.04 25.6453 37.9638 25.6453 37.9077C25.6453 37.8619 25.6589 37.8211 25.6864 37.785C25.7143 37.7495 25.7512 37.7288 25.7973 37.7227C25.8431 37.7227 25.9061 37.7488 25.9862 37.8011L26.0967 37.884V37.1192H25.4331L25.2028 36.7647H27.4142L27.6167 37.1192H26.5296V37.8887L26.6308 37.9255C26.6648 37.9348 26.7045 37.9391 26.7506 37.9391C26.8583 37.9391 26.9717 37.9223 27.0915 37.8887C27.1499 37.8701 27.2067 37.8518 27.2622 37.8332C27.3173 37.815 27.3727 37.7935 27.4278 37.7689V38.2378ZM28.7961 37.1192L28.5657 36.7647H29.0769L29.2797 37.1192H28.7961ZM29.1231 38.5272C29.0587 38.5859 28.9542 38.6517 28.8097 38.724C28.6655 38.797 28.5579 38.8331 28.4874 38.8331C28.3125 38.8331 28.1036 38.7476 27.861 38.5773C27.655 38.4278 27.4969 38.2772 27.3863 38.1251L27.7505 37.9531C27.8396 37.9162 27.9022 37.8833 27.9394 37.8526L27.6213 37.6376C27.4768 37.5277 27.4049 37.389 27.4049 37.2215C27.4049 37.0634 27.4607 36.9397 27.573 36.8513C27.685 36.7629 27.841 36.7186 28.0406 36.7186C28.1848 36.7186 28.3414 36.8077 28.5103 36.9858C28.5933 37.0749 28.6562 37.1632 28.6992 37.2505C28.7424 37.3382 28.7639 37.4279 28.7639 37.5202C28.7639 37.6859 28.6716 37.8472 28.4874 38.0039C28.3951 38.0776 28.2402 38.1759 28.022 38.2986C28.022 38.3323 28.0252 38.3623 28.0313 38.3884C28.0374 38.4145 28.0506 38.436 28.0706 38.4528C28.0903 38.47 28.1129 38.4829 28.1372 38.4922C28.1619 38.5015 28.1926 38.5058 28.2295 38.5058C28.3339 38.5058 28.472 38.45 28.6441 38.3387L29.1231 37.9531V38.5272ZM28.105 37.7227C28.1848 37.6798 28.2495 37.6183 28.2985 37.5385C28.3475 37.4494 28.3722 37.3603 28.3722 37.2713C28.3722 37.2101 28.3522 37.1593 28.3125 37.1192C28.2724 37.0795 28.2202 37.0595 28.1558 37.0595C28.0696 37.0595 27.9952 37.0885 27.9322 37.1471C27.8692 37.2054 27.8378 37.2806 27.8378 37.3729C27.8378 37.4619 27.8839 37.5464 27.9762 37.6261L28.105 37.7227ZM28.6716 36.7647H31.219L31.4218 37.1192H31.044V39.1454L30.6108 38.8413V38.4231L30.4177 38.5151C30.2638 38.5795 30.1411 38.612 30.0489 38.612C29.8832 38.612 29.7312 38.5533 29.5931 38.436C29.513 38.3684 29.4178 38.2593 29.3073 38.1083L29.2154 37.9187C29.1753 37.8204 29.1477 37.7381 29.1324 37.6737C29.1324 37.6551 29.2343 37.6129 29.4386 37.5471C29.6428 37.4802 29.7451 37.4133 29.7451 37.3457C29.7451 37.2999 29.7219 37.2391 29.6757 37.1654L29.6436 37.1192H28.8973L28.6716 36.7647ZM30.1318 37.6884C30.1318 37.7313 30.0367 37.7864 29.8464 37.8526C29.6561 37.9187 29.5606 37.9878 29.5606 38.0583C29.5606 38.1198 29.6038 38.1695 29.6897 38.2064C29.7541 38.2278 29.8142 38.2389 29.8693 38.2389C29.9859 38.2389 30.1458 38.1881 30.3483 38.0858L30.6108 37.9331V37.1192H29.9061L30.0167 37.3135C30.0936 37.4741 30.1318 37.5993 30.1318 37.6884ZM32.2832 37.1192L32.0528 36.7647H32.6563C32.647 36.7461 32.6288 36.7093 32.6009 36.6549C32.5855 36.6241 32.5687 36.5859 32.5504 36.5397C32.5379 36.4975 32.529 36.4582 32.5229 36.4231C32.5164 36.3877 32.5136 36.3455 32.5136 36.2972C32.5136 36.1319 32.5726 36.0013 32.691 35.9048C32.8091 35.8089 32.965 35.7602 33.1585 35.7602C33.3428 35.7602 33.5746 35.845 33.854 36.0139C34.0965 36.158 34.2947 36.3115 34.4481 36.4743L34.3609 36.6263C34.201 36.485 34.03 36.3669 33.8472 36.2718C33.6644 36.1766 33.4948 36.129 33.3381 36.129C33.1875 36.129 33.0723 36.1734 32.9926 36.2618C32.9128 36.3501 32.8727 36.4707 32.8727 36.6227C32.8727 36.7025 32.8727 36.7493 32.8727 36.7647H33.2981L33.5317 37.1192H33.0112V39.1407L32.578 38.8499V37.1192H32.2832ZM32.9557 36.7647H35.4247L35.6276 37.1192H35.2405V39.1454L34.8077 38.8413V38.2893H34.0704V38.4875C34.0704 38.5426 34.065 38.5805 34.0543 38.6002C34.0436 38.6202 34.0167 38.6303 33.9738 38.6303C33.9402 38.6303 33.8862 38.6041 33.8125 38.5526C33.7359 38.4915 33.6651 38.4285 33.6007 38.3623C33.5363 38.2972 33.4916 38.2457 33.4669 38.2096C33.4301 38.1541 33.4118 38.1012 33.4118 38.049C33.4118 37.9731 33.4594 37.9348 33.5546 37.9348H33.6375V37.1192H33.1907L32.9557 36.7647ZM34.0704 37.9348H34.8077V37.1192H34.0704V37.9348ZM36.6088 39.4355L36.1942 38.8145H36.1112C35.9914 38.8145 35.8894 38.7762 35.805 38.6986C35.7206 38.621 35.6784 38.5272 35.6784 38.4185C35.6784 38.3537 35.6991 38.2926 35.7402 38.2343C35.7817 38.1759 35.8304 38.1466 35.8855 38.1466C35.9377 38.1466 35.9974 38.191 36.0651 38.28L36.1527 38.4185L36.3924 38.2793C36.4936 38.2149 36.558 38.1552 36.5859 38.099L36.0193 37.8171C35.8594 37.6944 35.7796 37.5599 35.7796 37.4151C35.7796 37.3475 35.8043 37.2784 35.8533 37.2069L35.927 37.1192H35.4755L35.2452 36.7647H37.3643L37.5668 37.1192H36.9222C36.9866 37.1747 37.037 37.2251 37.0738 37.2713C37.1754 37.4011 37.2259 37.5317 37.2259 37.6644C37.2259 37.9102 37.1153 38.1473 36.8943 38.3752C36.797 38.4736 36.6324 38.5973 36.4024 38.7447L36.8245 39.3189L36.6088 39.4355ZM36.793 37.5524C36.793 37.4172 36.7655 37.3035 36.71 37.2115L36.627 37.1192H36.4707C36.4185 37.1378 36.3691 37.1747 36.323 37.2298C36.2861 37.282 36.2679 37.345 36.2679 37.4186C36.2679 37.5263 36.323 37.6354 36.4339 37.746C36.5104 37.8225 36.5966 37.8826 36.6918 37.9255L36.7655 37.746C36.7837 37.6905 36.793 37.6261 36.793 37.5524ZM37.917 37.1192V39.1178L37.4841 38.8131V37.1192H37.1801L36.9497 36.7647H38.2579L38.4607 37.1192H37.917ZM39.672 38.1098H39.1193C39.0857 38.1098 39.0685 38.1498 39.0685 38.2296V38.2893C39.0685 38.3477 39.061 38.3924 39.0456 38.4231C39.0302 38.4535 38.992 38.4689 38.9304 38.4689C38.8628 38.4689 38.7623 38.3899 38.6289 38.2318C38.4951 38.0736 38.4285 37.9577 38.4285 37.884C38.4285 37.844 38.4454 37.8125 38.479 37.7896C38.513 37.7667 38.5527 37.752 38.5988 37.746H39.672V37.1192H38.1288L37.8988 36.7647H40.2941L40.4965 37.1192H40.1052V39.1178L39.672 38.8138V38.1098Z" fill="#1B1918"/>
<path fill-rule="evenodd" clip-rule="evenodd" d="M6.53312 33.4926L2.60101 35.1364L2.37743 34.6019L4.60141 31.2486L1.51496 32.5389L1.30605 32.0388L5.23851 30.3951L5.46173 30.9299L3.23776 34.2832L6.32421 32.9929L6.53312 33.4926ZM5.06072 29.939L0.554472 29.2085L0.427838 28.6015L4.24619 26.0327L4.37711 26.6612L3.21308 27.4074L3.57975 29.1642L4.93838 29.3531L5.06072 29.939ZM3.09718 29.0959L2.80062 27.6739L1.7346 28.3504C1.41051 28.5546 1.14078 28.7142 0.92579 28.8311C1.20982 28.8315 1.49278 28.8526 1.77717 28.8937L3.09718 29.0959ZM4.307 24.9237L0.545887 25.0117L0.578798 26.4161L0.0786994 26.4279L0 23.0535L0.499741 23.0421L0.532651 24.4465L4.29376 24.3585L4.307 24.9237ZM4.39035 22.2791L0.162049 21.7418L0.233594 21.1808L4.46154 21.7181L4.39035 22.2791ZM2.47617 20.3041C1.79756 20.1084 1.31821 19.7721 1.03955 19.2964C0.760522 18.8202 0.704717 18.2944 0.871416 17.7166C0.980522 17.3382 1.16904 17.0237 1.43698 16.7719C1.70456 16.5208 2.02293 16.3616 2.3921 16.2954C2.7602 16.2292 3.1494 16.2546 3.55828 16.3727C3.97288 16.4922 4.32059 16.6832 4.5989 16.9454C4.87864 17.2076 5.05786 17.5163 5.13728 17.8719C5.21705 18.2282 5.2056 18.5841 5.10293 18.9397C4.99168 19.326 4.79887 19.643 4.52557 19.8934C4.25227 20.1431 3.9321 20.3005 3.56472 20.3642C3.19841 20.4278 2.83568 20.4078 2.47617 20.3041ZM2.64752 19.7464C3.1401 19.8884 3.56651 19.868 3.92602 19.6845C4.28554 19.5013 4.52342 19.2094 4.63897 18.8091C4.7563 18.401 4.7098 18.0254 4.50017 17.6787C4.28983 17.3332 3.92173 17.0845 3.39552 16.9329C3.06283 16.837 2.75591 16.8095 2.47581 16.8502C2.19535 16.8914 1.95532 17.0008 1.75678 17.1779C1.55753 17.3557 1.41873 17.5793 1.34111 17.849C1.23057 18.2321 1.26706 18.5999 1.45057 18.9522C1.63373 19.3046 2.03259 19.5693 2.64752 19.7464ZM5.93894 16.3129L2.16316 14.3362L2.43181 13.8232L6.4326 13.3935L3.46885 11.8417L3.71997 11.362L7.49611 13.3388L7.22746 13.8522L3.22631 14.2814L6.19006 15.8332L5.93894 16.3129ZM7.74616 12.901L5.67887 8.83078L6.09455 8.37074L10.4205 9.93937L9.99016 10.4159L8.70128 9.91611L7.49826 11.2479L8.14717 12.4567L7.74616 12.901ZM7.26931 10.8179L8.24268 9.73976L7.06791 9.27793C6.71162 9.13663 6.42365 9.01286 6.20258 8.90805C6.36964 9.13771 6.51952 9.37881 6.65403 9.63244L7.26931 10.8179ZM10.7621 9.6793L8.01696 6.419L8.4498 6.05484L10.8727 8.93237L12.4756 7.58304L12.7976 7.96544L10.7621 9.6793ZM16.113 6.12066L14.5751 2.14599L15.1024 1.94173L15.7363 3.57939L17.7903 2.78488L17.1564 1.14722L17.6841 0.942961L19.2219 4.91799L18.6943 5.12189L17.9706 3.251L15.9166 4.04586L16.6403 5.91676L16.113 6.12066ZM20.1753 4.76167L19.4312 0.565204L22.4611 0.0275448L22.5484 0.520131L20.0751 0.958701L20.3037 2.24794L22.6189 1.83763L22.7062 2.32986L20.3913 2.74052L20.645 4.17035L23.2177 3.71425L23.3054 4.20648L20.1753 4.76167ZM23.6316 4.21399L25.387 0L26.0069 0.0175285L27.6202 4.32703L26.9785 4.30915L26.5224 3.00381L24.7284 2.95301L24.2297 4.2308L23.6316 4.21399ZM24.9069 2.49942L26.3589 2.54056L25.9482 1.34683C25.8245 0.984099 25.7318 0.684684 25.6681 0.448586C25.6016 0.724749 25.5154 0.995189 25.4095 1.26205L24.9069 2.49942ZM28.0341 4.48228L28.7582 0.282244L29.3155 0.378472L28.6762 4.08593L30.741 4.44186L30.6562 4.93445L28.0341 4.48228ZM31.8897 5.4324L33.2197 1.91347L31.9054 1.41695L32.0821 0.949042L35.2394 2.14205L35.0627 2.60996L33.7484 2.11343L32.4188 5.63237L31.8897 5.4324ZM34.31 6.35175L36.5723 2.73945L37.0516 3.03958L36.1194 4.52771L37.986 5.69676L38.9182 4.20862L39.3976 4.50876L37.1353 8.1207L36.656 7.82057L37.7209 6.12066L35.854 4.95162L34.7894 6.65188L34.31 6.35175ZM40.3738 10.8827L43.8126 8.36466L44.312 9.04684L42.4733 11.6425C42.3016 11.8832 42.1717 12.0621 42.0841 12.1791C42.2379 12.1268 42.4672 12.0539 42.7706 11.9594L45.7683 11.0358L46.2144 11.645L42.7756 14.163L42.4554 13.7259L45.3322 11.6192L41.7207 12.7221L41.4205 12.3121L43.6234 9.17455L40.6936 11.3198L40.3738 10.8827ZM43.1995 15.0795L46.9703 13.0931L47.2339 13.5932L43.4631 15.58L43.1995 15.0795ZM45.1537 15.835L45.3748 16.3187C45.1809 16.4135 45.035 16.5269 44.9355 16.6599C44.8371 16.7923 44.7799 16.964 44.7638 17.1751C44.7484 17.3854 44.781 17.6054 44.8615 17.8336C44.933 18.0368 45.026 18.2049 45.1416 18.3387C45.2571 18.4725 45.3809 18.5584 45.5136 18.597C45.646 18.6353 45.7744 18.6331 45.8982 18.5895C46.0234 18.5455 46.1199 18.4704 46.1886 18.3641C46.2566 18.2579 46.2927 18.1094 46.2977 17.9184C46.301 17.7964 46.2823 17.5346 46.2409 17.1336C46.1994 16.7329 46.1918 16.4453 46.218 16.2697C46.2516 16.0421 46.3267 15.8558 46.4426 15.7098C46.5578 15.5628 46.7088 15.4569 46.8933 15.3918C47.0972 15.3199 47.3076 15.311 47.524 15.3643C47.7415 15.4168 47.9343 15.537 48.1042 15.7266C48.2738 15.9151 48.4065 16.1448 48.5017 16.4152C48.6068 16.7129 48.6516 16.9926 48.6355 17.2538C48.6204 17.5149 48.5407 17.7395 48.3969 17.9281C48.2538 18.1166 48.0656 18.2565 47.8331 18.3491L47.6134 17.8522C47.8574 17.7356 48.0166 17.5753 48.0899 17.3714C48.1643 17.1675 48.1465 16.9111 48.0373 16.602C47.9239 16.2804 47.7823 16.0661 47.6124 15.9609C47.4428 15.8558 47.2747 15.8318 47.108 15.8905C46.9638 15.9413 46.8637 16.0357 46.8068 16.1727C46.7503 16.3083 46.7481 16.6088 46.8032 17.0752C46.8572 17.5421 46.8769 17.869 46.8604 18.0554C46.835 18.3266 46.7606 18.5473 46.634 18.7172C46.5088 18.8864 46.3382 19.0087 46.1232 19.0846C45.9089 19.1601 45.6871 19.1701 45.4549 19.1139C45.2228 19.0581 45.0142 18.9351 44.8286 18.7426C44.6429 18.5505 44.4998 18.3115 44.3986 18.0243C44.2705 17.6612 44.2165 17.3385 44.2358 17.0559C44.2548 16.7726 44.3463 16.5247 44.5102 16.3101C44.6733 16.0951 44.8879 15.9373 45.1537 15.835ZM46.4698 19.8941L46.5839 20.4135C46.3743 20.4654 46.2076 20.5455 46.0824 20.6543C45.9583 20.7634 45.866 20.919 45.8059 21.1215C45.7465 21.3243 45.7318 21.5461 45.7622 21.7861C45.7894 21.9997 45.8449 22.1835 45.9293 22.3388C46.0141 22.4941 46.1171 22.6042 46.2383 22.6697C46.36 22.7352 46.4859 22.7602 46.6157 22.7437C46.7477 22.7269 46.8579 22.674 46.9477 22.5846C47.0364 22.4955 47.103 22.3578 47.1484 22.1721C47.1774 22.0533 47.2142 21.7936 47.2582 21.393C47.3026 20.9923 47.3555 20.7097 47.4185 20.5437C47.499 20.3284 47.612 20.162 47.7558 20.0436C47.9 19.9245 48.0699 19.853 48.2638 19.8283C48.4781 19.8011 48.6855 19.8365 48.8862 19.9342C49.0876 20.0315 49.2507 20.19 49.3767 20.411C49.5026 20.631 49.5838 20.8836 49.6199 21.168C49.6596 21.481 49.6446 21.7639 49.5738 22.0161C49.5037 22.268 49.3785 22.4708 49.1978 22.6246C49.0186 22.7784 48.8047 22.8757 48.5582 22.9169L48.4484 22.3849C48.7117 22.3227 48.9009 22.1993 49.0157 22.0158C49.1313 21.8323 49.1678 21.5776 49.1266 21.2527C49.0837 20.914 48.9903 20.675 48.8465 20.5362C48.7031 20.3974 48.5435 20.3388 48.3682 20.3609C48.2169 20.3803 48.0989 20.4511 48.0141 20.5731C47.9304 20.6936 47.8649 20.987 47.8202 21.4549C47.7748 21.9224 47.7247 22.2458 47.6696 22.425C47.5873 22.6844 47.4678 22.8847 47.3087 23.0238C47.1502 23.163 46.9577 23.2463 46.7313 23.275C46.5059 23.3039 46.2874 23.2667 46.072 23.163C45.857 23.0593 45.6789 22.8947 45.5383 22.6675C45.3973 22.4404 45.3079 22.1771 45.2693 21.8748C45.221 21.4928 45.2364 21.1658 45.3147 20.894C45.393 20.621 45.5347 20.3981 45.7408 20.2229C45.9454 20.0469 46.1883 19.9378 46.4698 19.8941ZM45.4918 24.2963L49.7537 24.3381L49.7483 24.9033L45.4864 24.8615L45.4918 24.2963ZM47.5973 26.0817C48.2917 26.2122 48.8004 26.5016 49.1234 26.9488C49.4461 27.3959 49.5516 27.9146 49.4407 28.5052C49.3677 28.8923 49.21 29.2232 48.9671 29.4997C48.7245 29.7752 48.4226 29.9637 48.0617 30.0642C47.7014 30.1651 47.3115 30.1769 46.8933 30.0982C46.4691 30.0184 46.1049 29.8614 45.803 29.6267C45.4996 29.3924 45.2918 29.1019 45.1791 28.7557C45.0657 28.4083 45.0436 28.0527 45.1119 27.6893C45.1863 27.2944 45.348 26.9602 45.5966 26.6848C45.8449 26.4104 46.1486 26.2233 46.5081 26.1253C46.8669 26.0273 47.23 26.0126 47.5973 26.0817ZM47.48 26.6533C46.976 26.5585 46.5535 26.6193 46.213 26.8361C45.8724 27.0529 45.6635 27.3659 45.5866 27.7751C45.5079 28.1926 45.5898 28.5621 45.8316 28.8873C46.0738 29.2114 46.4637 29.4239 47.0021 29.5251C47.3423 29.5892 47.6506 29.5874 47.9257 29.5198C48.2008 29.4525 48.4294 29.3209 48.6104 29.1255C48.7914 28.9295 48.9084 28.6941 48.9603 28.4183C49.034 28.0263 48.9628 27.6635 48.7467 27.3301C48.5306 26.9971 48.1089 26.7714 47.48 26.6533ZM44.5817 30.4058L48.4816 32.1251L48.248 32.6552L44.2848 33.3517L47.3459 34.7014L47.1273 35.1972L43.2274 33.4776L43.461 32.9475L47.4242 32.251L44.3632 30.9013L44.5817 30.4058Z" fill="#1B1918"/>
</svg>
